<?xml version="1.0" encoding="utf-8"?>
<!-- Generator: Adobe Illustrator 25.0.0, SVG Export Plug-In . SVG Version: 6.00 Build 0)  -->
<svg version="1.1" id="Layer_1" xmlns="http://www.w3.org/2000/svg" xmlns:xlink="http://www.w3.org/1999/xlink" x="0px" y="0px"
	 viewBox="0 0 500 500" style="enable-background:new 0 0 500 500;" xml:space="preserve">
<g>
	<path d="M296.2,190.2c-2.9,0-5.9-0.9-8.4-2.6L250,162l-37.8,25.7c-5.1,3.5-11.9,3.5-17-0.1c-5.1-3.5-7.4-9.9-5.9-15.9l11.9-46.9
		l-35.6-30.4c-4.6-4-6.4-10.4-4.4-16.1c2-5.8,7.2-9.8,13.3-10.2l45.1-2.5L236,20.8c2.1-5.9,7.7-9.8,14-9.8s11.9,3.9,14,9.8
		l16.4,44.7l45.1,2.5c6.1,0.4,11.4,4.4,13.3,10.2c2,5.8,0.2,12.1-4.4,16.1l-35.6,30.4l11.9,46.9c1.5,6-0.8,12.3-5.9,15.9
		C302.2,189.4,299.2,190.2,296.2,190.2L296.2,190.2z"/>
	<path d="M474.1,389.4h-94.6v84.6c0,5.2-1,10.4-2.6,14.9h97.2c8.2,0,14.9-6.8,14.9-14.9v-69.7C489,396.2,482.2,389.4,474.1,389.4z"
		/>
	<path d="M120.5,349.6H25.9c-8.2,0-14.9,6.8-14.9,14.9v109.5c0,8.2,6.8,14.9,14.9,14.9h97.2c-1.6-4.6-2.6-9.8-2.6-14.9V349.6z"/>
	<path d="M334.6,230.1H165.4c-8.2,0-14.9,6.7-14.9,14.9v229c0,8.2,6.7,14.9,14.9,14.9h169.3c8.2,0,14.9-6.7,14.9-14.9V245
		C349.6,236.8,342.9,230.1,334.6,230.1z M264.9,394.4c0,8.2-6.7,14.9-14.9,14.9c-8.2,0-14.9-6.7-14.9-14.9v-58.6
		c-3-2.7-5-6.7-5-11.1c0-8.2,6.7-14.9,14.9-14.9h5c8.2,0,14.9,6.7,14.9,14.9V394.4z"/>
</g>
</svg>
