<?xml version="1.0" encoding="utf-8"?>
<!-- Generator: Adobe Illustrator 25.0.0, SVG Export Plug-In . SVG Version: 6.00 Build 0)  -->
<svg version="1.1" id="Layer_1" xmlns="http://www.w3.org/2000/svg" xmlns:xlink="http://www.w3.org/1999/xlink" x="0px" y="0px"
	 viewBox="0 0 500 500" style="enable-background:new 0 0 500 500;" xml:space="preserve">
<style type="text/css">
	.st0{fill:#FFFFFF;}
</style>
<g>
	<path class="st0" d="M161.7,340l7.1-8c-5.2-16.6-5.2-34.9,0.3-51.7c-40.8,22.4-92.6,13.5-123.4-23C22.8,275.5,8,303.6,8,335.1
		v141.8c0,7.8,6.4,14.2,14.2,14.2H139c-1.6-4.4-2.4-9.2-2.4-14.2V406C136.6,381.6,145.5,358.2,161.7,340L161.7,340z"/>
	<circle class="st0" cx="121.5" cy="193.3" r="70.9"/>
	<path class="st0" d="M454.3,257.3c-30.9,36.6-82.7,45.4-123.4,23c5.5,16.9,5.5,35.1,0.3,51.7l7.1,8c16.2,18.2,25.1,41.6,25.1,65.9
		v70.9c0,5-0.9,9.7-2.4,14.2h116.8c7.8,0,14.2-6.4,14.2-14.2V335.1C491.9,303.6,477.2,275.5,454.3,257.3L454.3,257.3z"/>
	<circle class="st0" cx="378.5" cy="193.3" r="70.9"/>
	<path class="st0" d="M250,391.8c-27.3,0-51.6-12.9-67.1-32.9c-11.2,12.5-17.9,29-17.9,47.1v70.9c0,7.8,6.4,14.2,14.2,14.2H321
		c7.8,0,14.2-6.4,14.2-14.2V406c0-18-6.8-34.5-17.9-47.1C301.6,378.9,277.3,391.8,250,391.8z"/>
	<circle class="st0" cx="250" cy="306.7" r="56.7"/>
	<path class="st0" d="M209.7,123.3c16.2,15,32.2,24.9,32.9,25.3c4.6,2.8,10.3,2.8,14.9,0c0.7-0.4,16.7-10.4,32.9-25.3
		c23.4-21.6,35.3-42.7,35.3-62.5c0-45.1-44.8-66.2-75.6-41.2c-30.9-25.1-75.6-3.8-75.6,41.2C174.4,80.7,186.3,101.7,209.7,123.3z"/>
</g>
</svg>
