<?xml version="1.0" encoding="utf-8"?>
<!-- Generator: Adobe Illustrator 25.0.0, SVG Export Plug-In . SVG Version: 6.00 Build 0)  -->
<svg version="1.1" id="Layer_1" xmlns="http://www.w3.org/2000/svg" xmlns:xlink="http://www.w3.org/1999/xlink" x="0px" y="0px"
	 viewBox="0 0 500 500" style="enable-background:new 0 0 500 500;" xml:space="preserve">
<g id="_08-Wish_list">
	<g id="filled">
		<path d="M448.1,147.2h-49.5V97.7c0-6.3-5.1-11.4-11.4-11.4h-74.7c5.2-22-2.7-47.2-20.7-62.6C271.5,6.5,245,5.5,219.5,20.8
			c-25.5-15.2-52-14.3-72.2,2.9c-18.1,15.4-25.9,40.5-20.7,62.6H51.9c-6.3,0-11.4,5.1-11.4,11.4v320c0,6.3,5.1,11.4,11.4,11.4h49.5
			v49.5c0,6.3,5.1,11.4,11.4,11.4h335.2c6.3,0,11.4-5.1,11.4-11.4v-320C459.5,152.3,454.4,147.2,448.1,147.2z M162.2,41.1
			c6-5.2,13.7-8.1,21.6-8.1c9.2,0,19.1,3.6,29.1,10.7c4,2.9,9.3,2.9,13.3,0c18.6-13.3,37.1-14.3,50.7-2.6
			c13.7,11.7,18.3,31.9,10.8,47c-14.3,28.6-54.4,50.8-68.1,57.8c-13.8-7-53.8-29.2-68.1-57.8C143.8,73,148.5,52.8,162.2,41.1z
			 M63.4,406.2V109.1h74c24.8,35.8,75.1,58.9,77.4,59.9c3,1.4,6.4,1.4,9.4,0c2.3-1.1,52.7-24.2,77.4-59.9h74v297.1H63.4z
			 M436.6,467.1H124.3v-38.1h262.8c6.3,0,11.4-5.1,11.4-11.4V170h38.1V467.1z"/>
		<path d="M287.7,88.1c-14.3,28.6-54.4,50.8-68.1,57.8c-13.8-7-53.8-29.2-68.1-57.8c-7.5-15.1-2.9-35.3,10.8-47
			c6-5.2,13.7-8.1,21.6-8.1c9.2,0,19.1,3.6,29.1,10.7c4,2.9,9.3,2.9,13.3,0c18.6-13.3,37.1-14.3,50.7-2.6
			C290.6,52.8,295.2,73,287.7,88.1z"/>
		<path d="M189.1,231h121.9c6.3,0,11.4-5.1,11.4-11.4s-5.1-11.4-11.4-11.4H189.1c-6.3,0-11.4,5.1-11.4,11.4S182.7,231,189.1,231z"/>
		<circle cx="128.1" cy="219.6" r="11.4"/>
		<path d="M189.1,291.9h121.9c6.3,0,11.4-5.1,11.4-11.4s-5.1-11.4-11.4-11.4H189.1c-6.3,0-11.4,5.1-11.4,11.4
			S182.7,291.9,189.1,291.9z"/>
		<circle cx="128.1" cy="280.5" r="11.4"/>
		<path d="M189.1,352.9h121.9c6.3,0,11.4-5.1,11.4-11.4s-5.1-11.4-11.4-11.4H189.1c-6.3,0-11.4,5.1-11.4,11.4
			S182.7,352.9,189.1,352.9z"/>
		<circle cx="128.1" cy="341.4" r="11.4"/>
	</g>
</g>
</svg>
