<?xml version="1.0" encoding="utf-8"?>
<!-- Generator: Adobe Illustrator 25.0.0, SVG Export Plug-In . SVG Version: 6.00 Build 0)  -->
<svg version="1.1" id="Layer_1" xmlns="http://www.w3.org/2000/svg" xmlns:xlink="http://www.w3.org/1999/xlink" x="0px" y="0px"
	 viewBox="0 0 500 500" style="enable-background:new 0 0 500 500;" xml:space="preserve">
<style type="text/css">
	.st0{fill:#FFFFFF;}
</style>
<g>
	<path class="st0" d="M445.1,7H54.9c-3.9,0-7.1,3.2-7.1,7.1v53.3c0,3.9,3.2,7.1,7.1,7.1s7.1-3.2,7.1-7.1V21.2h108l-14.2,14.2H83.4
		c-3.9,0-7.1,3.2-7.1,7.1v72.3L62,129.1V97.8c0-3.9-3.2-7.1-7.1-7.1s-7.1,3.2-7.1,7.1v388.1c0,3.9,3.2,7.1,7.1,7.1H445
		c3.9,0,7.1-3.2,7.1-7.1V14.1C452.2,10.2,449,7,445.1,7z M90.5,49.7h50.9l-50.9,51C90.5,100.7,90.5,49.7,90.5,49.7z M62,149.3
		l26.4-26.4L190.1,21.2h20.1L62,169.4V149.3z M438,478.8H62V189.6l14.2-14.2v282.1c0,3.9,3.2,7.1,7.1,7.1h333.2
		c3.9,0,7.1-3.2,7.1-7.1v-25.1c0-3.9-3.2-7.1-7.1-7.1s-7.1,3.2-7.1,7.1v18h-55v-7c0-17.7-4.9-34.5-14.2-48.6
		c-8.2-12.5-19.6-22.1-32.3-27.5v-0.1c-0.4-3.4-2.9-6.2-6.2-7.2l-23.7-6.5v-18.1c30.5-11.1,52.5-39.8,53.6-73.8
		c0.9,0.1,1.8,0.2,2.8,0.2c14.4,0,24.8-15,24.8-35.8c0-15.1-6.1-26.3-16-30.5c-0.3-4.7-0.8-8.2-1-9.6c0-3.4-0.2-16.5-5.8-30.1
		c-1.5-3.6-5.6-5.4-9.3-3.9c-3.6,1.5-5.4,5.6-3.9,9.3c5.1,12.5,4.7,24.8,4.7,24.9c0,0.5,0,1.1,0.1,1.6c2.6,14.1,0.2,41.6-5.5,37.1
		c-4.5-3.5-8.5-11.4-11.4-22.2c-2.4-8.9-3.1-16.7-3.1-16.8c-0.2-2.3-1.5-4.3-3.5-5.5c-19.8-11.7-24.1-24.2-24.4-25.1
		c-0.7-2.8-2.9-4.9-5.8-5.3c-2.9-0.5-5.7,1-7.2,3.5c-4.6,7.8-17.9,14.9-37.5,20.1c-16,4.2-30.7,5.8-30.8,5.8c-3.4,0.3-6.1,3-6.4,6.4
		c0,0.1-0.8,7.9-3.1,16.8c-2.9,10.8-6.9,18.7-11.4,22.2c-0.6,0.5-1.2,0.4-1.6,0.3c-0.3-0.1-1.2-0.4-1.5-1.4
		c-5.9-15.7-2.3-35.8-2.3-35.9c0.1-0.3,0.1-0.7,0.1-1c1-23.2,14.7-56.1,48.8-61.9c45.5-7.7,56.5,5,57.6,6.4c1,2.5,3.2,3.7,6,3.8
		c8.8,0.4,16.3,2.6,22.5,6.4c3.3,2.1,7.7,1.1,9.8-2.3c2.1-3.3,1.1-7.7-2.3-9.8c-7.4-4.6-16.1-7.4-25.9-8.3
		c-6-6.5-23.7-18.1-70.1-10.2c-38,6.5-58.5,40.4-60.6,74.8c-0.2,1.3-0.8,5-1.1,9.9c-9.9,4.1-16,15.4-16,30.5
		c0,19.4,10,37.8,27.6,35.6c1.1,34,23.2,62.7,53.6,73.8v18.1l-23.7,6.5c-3.3,0.9-5.8,3.7-6.2,7.2v0.1c-12.8,5.4-24.1,15-32.3,27.5
		c-9.3,14.1-14.2,30.9-14.2,48.6v7H90.5V161.1L201.9,49.7h207.6v352.4c0,3.9,3.2,7.1,7.1,7.1s7.1-3.2,7.1-7.1V42.6
		c0-3.9-3.2-7.1-7.1-7.1H216.1l14.2-14.2H438V478.8z"/>
	<path class="st0" d="M157.9,213.8c1.7,13.2,5.6,25.4,18.8,25.5c-2.4,4.9-6.3,8.1-10.6,8.1c-5.9,0-10.6-9.6-10.6-21.5
		C155.5,221.7,156.2,217.3,157.9,213.8z"/>
	<path class="st0" d="M183,254.5c6.2-6.1,10.3-15.4,10.5-26c7.7-11.2,11.1-27.1,12.4-35.7c14-1.9,48-7.9,65.8-23.2
		c4,6,10.9,13.6,22.6,21.1c1.1,7.8,4.3,25.6,12.7,37.8c0.2,10.5,4.2,19.9,10.5,26v4.3c0,37-30.1,67.2-67.2,67.2h-0.1
		c-37.1,0-67.2-30.1-67.2-67.2L183,254.5L183,254.5z"/>
	<path class="st0" d="M342.7,213.8c1.7,3.4,2.3,7.9,2.3,12.2c0,11.9-4.8,21.5-10.6,21.5c-4.3,0-8.1-3.2-10.6-8.1
		C337.2,239.2,341,226.9,342.7,213.8z"/>
	<path class="st0" d="M250.2,340.2L250.2,340.2c4.7,0,9.2-0.4,13.6-1.1v23h-27.1v-23C241.1,339.8,245.6,340.2,250.2,340.2z"/>
	<polygon class="st0" points="260.4,376.4 250.3,415.2 240.2,376.4 	"/>
	<path class="st0" d="M223.3,368l19.1,73.4c0.9,3.6,4.2,6.1,7.9,6.1s6.9-2.5,7.9-6.1l19.1-73.4l17,4.7l9.5,77.6H196.7l9.5-77.6
		L223.3,368z"/>
	<path class="st0" d="M340.3,450.3h-22.1l-8.1-66c18.2,11.5,30.2,34.1,30.2,59V450.3L340.3,450.3z"/>
	<path class="st0" d="M182.4,450.3h-22.1v-6.9c0-24.9,12-47.6,30.2-59L182.4,450.3z"/>
	<path class="st0" d="M313.6,128.5c0,0,11.7,5.7,22.6,26.6c10.8,20.9-11.3,79.2-11.3,79.2l-32.6-45l-36.5-19.9
		c0,0-31.8,24.6-32.8,26.6s-40,44.4-40,44.4s-15.8-8.3-16.9-16.9c-1.1-8.6-6.9-30.3,0-45.4c6.9-15.1,0-32.6,16.9-40.9
		c17-8.3,26-18.3,34-18.3s10.9,1,22.4,0"/>
</g>
</svg>
