<?xml version="1.0" encoding="utf-8"?>
<!-- Generator: Adobe Illustrator 25.0.0, SVG Export Plug-In . SVG Version: 6.00 Build 0)  -->
<svg version="1.1" id="Layer_1" xmlns="http://www.w3.org/2000/svg" xmlns:xlink="http://www.w3.org/1999/xlink" x="0px" y="0px"
	 viewBox="0 0 500 500" style="enable-background:new 0 0 500 500;" xml:space="preserve">
<style type="text/css">
	.st0{fill:#01003F;}
</style>
<g>
	<g>
		<path class="st0" d="M136.9,114c-4.7,0-9.3-2.4-12-6.7l-22.3-35.7c-4.2-6.6-2.1-15.4,4.5-19.5c6.6-4.2,15.4-2.1,19.5,4.5
			l22.3,35.7c4.2,6.6,2.1,15.4-4.5,19.5C142.1,113.3,139.5,114,136.9,114L136.9,114z"/>
	</g>
	<g>
		<path class="st0" d="M84.4,166.8c-3,0-6.1-1-8.6-2.9L13.4,116c-6.2-4.8-7.4-13.7-2.6-19.9c4.8-6.2,13.7-7.4,19.9-2.6l62.4,47.9
			c6.2,4.8,7.4,13.7,2.6,19.9C92.9,164.9,88.7,166.8,84.4,166.8z"/>
	</g>
	<g>
		<path class="st0" d="M363.1,114c-2.6,0-5.2-0.7-7.5-2.2c-6.6-4.2-8.7-12.9-4.5-19.5l22.3-35.7c4.2-6.6,12.9-8.7,19.5-4.5
			s8.7,12.9,4.5,19.5l-22.3,35.7C372.5,111.7,367.8,114,363.1,114z"/>
	</g>
	<g>
		<path class="st0" d="M415.6,166.8c-4.3,0-8.5-1.9-11.3-5.5c-4.8-6.2-3.6-15.1,2.6-19.9l62.4-47.9c6.2-4.8,15.1-3.6,19.9,2.6
			s3.6,15.1-2.6,19.9l-62.4,47.9C421.6,165.8,418.6,166.8,415.6,166.8L415.6,166.8z"/>
	</g>
	<path class="st0" d="M7.9,435.8c0,7.8,6.4,14.2,14.2,14.2h455.8c7.8,0,14.2-6.4,14.2-14.2V403c0-6.3-5.1-11.3-11.3-11.3H19.2
		c-6.3,0-11.3,5.1-11.3,11.3C7.9,403,7.9,435.8,7.9,435.8z"/>
	<path class="st0" d="M429.2,263.3c-2.7-2.6-6.7-6.5-7.6-8.2c-11.6-37.3-34.5-86.7-99.1-86.7h-145c-64.6,0-87.5,49.4-99.1,86.7
		c-0.9,1.7-4.9,5.6-7.6,8.2c-7.5,7.3-16.9,16.4-16.9,28.7v28.7c0,7.8,6.4,14.2,14.2,14.2h167.8v28.4h28.4v-28.4H432
		c7.8,0,14.2-6.4,14.2-14.2V292C446.2,279.7,436.8,270.6,429.2,263.3L429.2,263.3z"/>
	<path class="st0" d="M293.8,114.7c0-19-15.5-34.5-34.5-34.5h-16.2c-19,0-34.5,15.5-34.5,34.5V140h85.1v-25.3H293.8z"/>
</g>
</svg>
