<?xml version="1.0" encoding="utf-8"?>
<!-- Generator: Adobe Illustrator 25.0.0, SVG Export Plug-In . SVG Version: 6.00 Build 0)  -->
<svg version="1.1" id="Layer_1" xmlns="http://www.w3.org/2000/svg" xmlns:xlink="http://www.w3.org/1999/xlink" x="0px" y="0px"
	 viewBox="0 0 500 500" style="enable-background:new 0 0 500 500;" xml:space="preserve">
<style type="text/css">
	.st0{fill:#01003F;}
</style>
<g>
	<path class="st0" d="M55.6,279.3c-5.2,0-9.4,4.2-9.4,9.4s4.2,9.4,9.4,9.4s9.4-4.2,9.4-9.4S60.8,279.3,55.6,279.3z"/>
	<path class="st0" d="M442.1,312l-88.9,30.6c0.4-2.2,0.6-4.4,0.6-6.7c0-20.8-16.9-37.7-37.7-37.7H255c-1.6,0-3.2-0.4-4.6-1.2
		l-49.8-28c-9.9-5.6-21.1-8.5-32.4-8.5h-66.9c-3.9-11-14.4-18.9-26.7-18.9H17.9c-5.2,0-9.4,4.2-9.4,9.4v169.8c0,5.2,4.2,9.4,9.4,9.4
		h56.6c12,0,22.3-7.6,26.4-18.2c10.7,1.3,23,4.5,30.8,9.1l49.3,29.6c18.7,11.2,40.1,17.1,61.9,17.1c17.3,0,34-3.6,49.8-10.8
		l176.1-77.5c19.5-7.9,29.1-31.3,18-51.9C478.6,312.6,459.4,305.8,442.1,312z M83.9,402c0,5.2-4.2,9.4-9.4,9.4H27.3v-151h47.2
		c5.2,0,9.4,4.2,9.4,9.4V402z M461.7,362.2c-0.1,0-0.2,0.1-0.3,0.1L285,440c-13.3,6-27.4,9.1-42,9.1c-18.4,0-36.4-5-52.2-14.5
		L141.5,405c-10.6-6.3-25.7-10.2-38.6-11.7v-114h65.3c8.1,0,16.1,2.1,23.1,6.1l49.8,28c4.2,2.4,9,3.6,13.9,3.6h61
		c10.4,0,18.9,8.5,18.9,18.9s-8.5,18.9-18.9,18.9h-95.9c-5.2,0-9.4,4.2-9.4,9.4c0,5.2,4.2,9.4,9.4,9.4H316c6.2,0,12.3-1.5,17.7-4.4
		l114.7-39.4c8.5-3.1,18,0,21.8,6.9C475.8,347.1,471.2,358.4,461.7,362.2z"/>
	<path class="st0" d="M283.3,260.9c1.8,1.5,4,2.3,6.2,2.3s4.4-0.8,6.2-2.3c77-66.7,124.6-100.5,124.6-153
		c0-41.5-29.4-75.9-70.7-75.9c-27.1,0-47.9,15.6-61.2,39.1C275,47.7,254.2,32,227.1,32c-31.6,0-58,20.5-67.3,52.2
		c-1.5,5,1.4,10.2,6.4,11.7s10.2-1.4,11.7-6.4c6.9-23.5,26.2-38.6,49.2-38.6c26.9,0,45.8,23.9,52.1,46.2c1.1,4.1,4.9,6.9,9.1,6.9
		s8-2.8,9.1-6.9c0.1-0.5,13.2-46.2,52.2-46.2c29.5,0,51.8,24.5,51.8,57c0,42-41,72.2-111.9,133.4c-43.2-37.1-77.5-63.2-97-88.7
		c-3.2-4.1-9.1-4.9-13.2-1.8c-4.1,3.2-4.9,9.1-1.8,13.2C199.4,192.8,236.5,220.3,283.3,260.9z"/>
	<path class="st0" d="M167.9,115.1c-5.2,0-9.4,4.2-9.4,9.4c0,5.2,4.2,9.4,9.4,9.4s9.4-4.2,9.4-9.4S173.1,115.1,167.9,115.1z"/>
</g>
</svg>
