<?xml version="1.0" encoding="utf-8"?>
<!-- Generator: Adobe Illustrator 25.0.0, SVG Export Plug-In . SVG Version: 6.00 Build 0)  -->
<svg version="1.1" id="Layer_1" xmlns="http://www.w3.org/2000/svg" xmlns:xlink="http://www.w3.org/1999/xlink" x="0px" y="0px"
	 viewBox="0 0 500 500" style="enable-background:new 0 0 500 500;" xml:space="preserve">
<style type="text/css">
	.st0{fill:#01003F;}
</style>
<g>
	<path class="st0" d="M446.6,39.2H234.9c-24.5,0-44.4,19.9-44.4,44.4v104.3c11.2,5.6,23.3,11.6,34.6,17.2l17.3-34.6
		c10.5-20.9,36-29.4,56.8-18.9c20.9,10.5,29.4,35.9,18.9,56.8L287.3,270c0.8,8.2,0.1,16.4-2.2,24.3h20.3l-53.6,147.4
		c-3.2,8.7,3,18.9,13.3,18.9c5.8,0,11.2-3.6,13.3-9.3l57.1-157.1h9.9l57.7,157.1c2.1,5.7,7.5,9.3,13.3,9.3c9.6,0,16.7-9.6,13.2-19
		l-54.1-147.4h71.1c24.5,0,44.4-19.9,44.4-44.4V83.6C491,59.1,471.1,39.2,446.6,39.2z M416.4,233.9H353c-7.8,0-14.1-6.3-14.1-14.1
		s6.3-14.1,14.1-14.1h63.4c7.8,0,14.1,6.3,14.1,14.1C430.5,227.5,424.2,233.9,416.4,233.9z M416.4,180.9H353
		c-7.8,0-14.1-6.3-14.1-14.1s6.3-14.1,14.1-14.1h63.4c7.8,0,14.1,6.3,14.1,14.1C430.5,174.6,424.2,180.9,416.4,180.9z M416.4,128
		H265.1c-7.8,0-14.1-6.3-14.1-14.1s6.3-14.1,14.1-14.1h151.2c7.8,0,14.1,6.3,14.1,14.1S424.2,128,416.4,128z"/>
	<path class="st0" d="M257.5,288.3c2.6-7.5,2.5-15.3,0.4-22.4l35-70.1c3.5-7,0.7-15.5-6.3-18.9c-7-3.5-15.5-0.7-18.9,6.3l-30,59.8
		c-17.9-8.9-45-22.4-66.9-33.3c-20.3-10.1-34.9-19.2-59.6-19.2H98.7c19.3,0,36.5-8.9,47.8-22.8c8.6-10.6,13.7-24,13.7-38.7
		c0-34-27.5-61.5-61.5-61.5S37.2,95,37.2,129c0,16.3,6.4,31.1,16.7,42.1C65.1,183,81,190.5,98.7,190.5c-23.7,0-46.8,9.6-63.4,26.3
		C18.3,233.7,9,256.2,9,280.3v45.4c0,19.5,12.7,36.2,30.3,42.1v78.9c0,7.8,6.3,14.1,14.1,14.1h90.8c7.8,0,14.1-6.3,14.1-14.1V288
		c13.4,6.7,31,15.5,45.2,22.6c10,5,21.6,5.4,32,1.2c10.4-4.3,18.4-12.8,21.9-23.3C257.4,288.4,257.4,288.4,257.5,288.3z"/>
</g>
</svg>
