<?xml version="1.0" encoding="utf-8"?>
<!-- Generator: Adobe Illustrator 25.0.0, SVG Export Plug-In . SVG Version: 6.00 Build 0)  -->
<svg version="1.1" id="Layer_1" xmlns="http://www.w3.org/2000/svg" xmlns:xlink="http://www.w3.org/1999/xlink" x="0px" y="0px"
	 viewBox="0 0 500 500" style="enable-background:new 0 0 500 500;" xml:space="preserve">
<style type="text/css">
	.st0{fill:#FFFFFF;}
</style>
<g>
	<path class="st0" d="M332.2,264.9c-21.9-34.2-59.3-54.6-99.9-54.6s-78,20.4-99.9,54.6l-52.9,82.4C70.8,361,66.7,376.8,67.8,393
		c1.1,16.2,7.3,31.3,17.8,43.7c10.6,12.3,24.5,20.8,40.4,24.4c15.8,3.6,32.1,2.1,47-4.5l1-0.4c37.4-16.1,80.2-16,117.6,0.4
		c9.6,4.2,19.8,6.4,30.1,6.4c5.6,0,11.2-0.6,16.8-1.9c15.8-3.6,29.8-12.1,40.4-24.4s16.7-27.5,17.8-43.7s-2.9-32-11.7-45.7
		L332.2,264.9z"/>
	<path class="st0" d="M93.8,264.8c15.7-6,27.7-18.7,33.6-35.7c5.7-16.1,5.2-34.4-1.3-51.3c-6.5-16.9-18.4-30.8-33.4-39
		c-15.8-8.6-33.2-10-48.8-3.9C12.2,147-2.3,186,11.5,221.9c11,28.5,36.7,46.5,62.6,46.5C80.7,268.4,87.4,267.2,93.8,264.8z"/>
	<path class="st0" d="M196.3,200.2c39.5,0,71.6-36.6,71.6-81.6S235.8,37,196.3,37s-71.6,36.6-71.6,81.6
		C124.7,163.6,156.8,200.2,196.3,200.2z"/>
	<path class="st0" d="M320,220.2L320,220.2c6.1,2,12.3,3,18.4,3c28.8,0,56.8-21,67.6-53.2c6.2-18.5,5.8-38.1-1.1-55.2
		C397.6,97,384.2,84,367.1,78.3s-35.6-3.3-52,6.7c-15.7,9.5-27.8,25-33.9,43.5C268.2,167.6,285.6,208.8,320,220.2z"/>
	<path class="st0" d="M470.7,210.7L470.7,210.7c-27.2-20.1-68-11.4-90.8,19.4c-22.8,30.9-19.2,72.3,7.9,92.5
		c9.9,7.3,21.6,10.9,33.6,10.9c20.9,0,42.6-10.7,57.2-30.3C501.5,272.3,497.9,230.8,470.7,210.7z"/>
</g>
</svg>
