<?xml version="1.0" encoding="utf-8"?>
<!-- Generator: Adobe Illustrator 25.0.0, SVG Export Plug-In . SVG Version: 6.00 Build 0)  -->
<svg version="1.1" id="Layer_1" xmlns="http://www.w3.org/2000/svg" xmlns:xlink="http://www.w3.org/1999/xlink" x="0px" y="0px"
	 viewBox="0 0 500 500" style="enable-background:new 0 0 500 500;" xml:space="preserve">
<style type="text/css">
	.st0{fill:#FFFFFF;}
</style>
<g>
	<g>
		<path class="st0" d="M487.2,18.7c-1.7-4-5.6-6.7-10-6.7C57.3,12,12,186,12,260.8c0,26.9,6,52.1,17.8,74.7c1.8,3.5,5.4,5.7,9.3,5.8
			c3.7-0.1,7.6-2,9.6-5.4C77,286.9,157.3,166,289.9,101.8c5.4-2.6,11.9-0.4,14.5,5s0.3,11.9-5,14.5c-10,4.8-19.6,10.1-29,15.6
			c-3.6,2.1-7.1,4.3-10.6,6.5c-5.3,3.3-10.5,6.6-15.6,10.1c-5.1,3.4-10.1,6.9-15,10.5c-1.5,1.1-3,2.3-4.5,3.4
			C92.6,265.7,12,422.6,12,477.2c0,6,4.8,10.8,10.8,10.8s10.8-4.8,10.8-10.8c0-17.4,11.9-52.8,34.4-95
			c32.6,26.7,76.5,40.9,127.9,40.9c138.9,0,168-132.2,183.6-203.2c21-95.6,67.3-151.4,105.3-189.4C487.9,27.4,488.8,22.7,487.2,18.7
			z"/>
	</g>
</g>
</svg>
