<?xml version="1.0" encoding="utf-8"?>
<!-- Generator: Adobe Illustrator 25.0.0, SVG Export Plug-In . SVG Version: 6.00 Build 0)  -->
<svg version="1.1" id="Layer_1" xmlns="http://www.w3.org/2000/svg" xmlns:xlink="http://www.w3.org/1999/xlink" x="0px" y="0px"
	 viewBox="0 0 500 500" style="enable-background:new 0 0 500 500;" xml:space="preserve">
<g>
	<path d="M155.7,13H91.1c-44.5,0-80.7,36.2-80.7,80.7V122c0,4.8,3.9,8.7,8.7,8.7c4.8,0,8.7-3.9,8.7-8.7V93.7
		c0-34.9,28.4-63.2,63.2-63.2h64.6c34.9,0,63.2,28.4,63.2,63.2v98.3c0,16.3-13.3,29.6-29.6,29.6H91.1c-33.3,0-61-26-63.1-59.2
		c-0.3-4.8-4.4-8.5-9.3-8.2c-4.8,0.3-8.5,4.4-8.2,9.3c2.7,42.3,38,75.5,80.5,75.5h98.3c25.9,0,47-21.1,47-47V93.7
		C236.4,49.2,200.2,13,155.7,13L155.7,13z"/>
	<path d="M408.9,13h-64.6c-44.5,0-80.7,36.2-80.7,80.7v98.3c0,25.9,21.1,47,47,47h98.3c44.5,0,80.7-36.2,80.7-80.7V93.7
		C489.6,49.2,453.4,13,408.9,13z M472.2,158.3c0,34.9-28.4,63.2-63.2,63.2h-98.3c-16.3,0-29.6-13.3-29.6-29.6V93.7
		c0-34.9,28.4-63.2,63.2-63.2h64.6c34.9,0,63.2,28.4,63.2,63.2V158.3z"/>
	<path d="M472.2,93.7v64.6c0,34.9-28.4,63.2-63.2,63.2h-98.3c-16.3,0-29.6-13.3-29.6-29.6V93.7c0-34.9,28.4-63.2,63.2-63.2h64.6
		C443.8,30.4,472.2,58.8,472.2,93.7z"/>
	<path d="M189.3,261H91.1c-44.5,0-80.7,36.2-80.7,80.7v64.6c0,44.5,36.2,80.7,80.7,80.7h64.6c44.5,0,80.7-36.2,80.7-80.7v-98.3
		C236.4,282.1,215.3,261,189.3,261z M218.9,406.3c0,34.9-28.4,63.2-63.2,63.2H91.1c-34.9,0-63.2-28.4-63.2-63.2v-64.6
		c0-34.9,28.4-63.2,63.2-63.2h98.3c16.3,0,29.6,13.3,29.6,29.6V406.3z"/>
	<path d="M218.9,308.1v98.3c0,34.9-28.4,63.2-63.2,63.2H91.1c-34.9,0-63.2-28.4-63.2-63.2v-64.6c0-34.9,28.4-63.2,63.2-63.2h98.3
		C205.6,278.5,218.9,291.7,218.9,308.1z"/>
	<path d="M376.6,261.5c-16.2,0-31.8,3.4-46.5,10c-4.4,2-6.3,7.2-4.3,11.5c2,4.4,7.2,6.3,11.5,4.3c12.4-5.6,25.6-8.5,39.3-8.5
		c52.4,0,95.1,42.6,95.1,95.1s-42.6,95.1-95.1,95.1s-95.1-42.6-95.1-95.1c0-24.3,9.1-47.4,25.8-65.1c3.3-3.5,3.1-9-0.4-12.3
		c-3.5-3.3-9-3.1-12.3,0.4c-19.7,20.9-30.5,48.3-30.5,77c0,62,50.5,112.5,112.5,112.5S489.1,436,489.1,374S438.7,261.5,376.6,261.5
		L376.6,261.5z"/>
	<path d="M352.4,412.3c-4-2.6-9.4-1.5-12.1,2.5c-2.6,4-1.5,9.4,2.5,12.1c9.5,6.2,16.1,8.3,24.4,8.8v7.2c0,4.8,3.9,8.7,8.7,8.7
		s8.7-3.9,8.7-8.7V435c16.4-3.8,26.9-17.6,29.2-31.2c2.9-17.4-6.2-32.6-23.2-38.6c-2-0.7-4-1.4-6-2.2v-33.7c4.6,1.4,7.2,3.6,7.4,3.8
		l2,1.9c3.5,3.3,9.1,3,12.3-0.5c3.3-3.5,3-9.1-0.5-12.3l-2-1.9c-0.4-0.4-7.5-6.8-19.2-8.8v-6.4c0-4.8-3.9-8.7-8.7-8.7
		c-4.8,0-8.7,3.9-8.7,8.7v7c-0.9,0.2-1.7,0.4-2.6,0.7c-11.3,3.4-19.7,13-22,25.1c-2.1,11.1,1.5,21.8,9.3,27.9
		c3.9,3.1,8.7,5.9,15.3,8.8v43.6C362,417.7,358.3,416.2,352.4,412.3L352.4,412.3z M384.7,381.6c0.1,0,0.1,0,0.1,0.1
		c13.2,4.7,12.4,15.9,11.8,19.3c-1,6.2-5.1,12.7-12,15.8V381.6z M362.7,352.1c-2.7-2.1-3.8-6.4-2.9-11c0.7-3.8,3.1-8.3,7.5-10.7
		v24.7C365.6,354.2,364,353.2,362.7,352.1z"/>
</g>
</svg>
