<?xml version="1.0" encoding="utf-8"?>
<!-- Generator: Adobe Illustrator 25.0.0, SVG Export Plug-In . SVG Version: 6.00 Build 0)  -->
<svg version="1.1" id="Layer_1" xmlns="http://www.w3.org/2000/svg" xmlns:xlink="http://www.w3.org/1999/xlink" x="0px" y="0px"
	 viewBox="0 0 500 500" style="enable-background:new 0 0 500 500;" xml:space="preserve">
<style type="text/css">
	.st0{fill:#FFFFFF;}
</style>
<path class="st0" d="M480.9,218.3C480.9,218.2,480.8,218.2,480.9,218.3L281.8,19.2C273.3,10.7,262,6,250,6s-23.3,4.7-31.8,13.2
	l-199,199c-0.1,0.1-0.1,0.1-0.2,0.2c-17.4,17.5-17.4,46,0.1,63.4c8,8,18.5,12.6,29.8,13.1c0.5,0,0.9,0.1,1.4,0.1h7.9v146.5
	c0,29,23.6,52.6,52.6,52.6h77.9c7.9,0,14.3-6.4,14.3-14.3V364.9c0-13.2,10.8-24,24-24h46c13.2,0,24,10.8,24,24v114.9
	c0,7.9,6.4,14.3,14.3,14.3h77.9c29,0,52.6-23.6,52.6-52.6V294.9h7.4c12,0,23.3-4.7,31.8-13.2C498.3,264.3,498.4,235.8,480.9,218.3z"
	/>
</svg>
