<?xml version="1.0" encoding="utf-8"?>
<!-- Generator: Adobe Illustrator 25.0.0, SVG Export Plug-In . SVG Version: 6.00 Build 0)  -->
<svg version="1.1" id="Layer_1" xmlns="http://www.w3.org/2000/svg" xmlns:xlink="http://www.w3.org/1999/xlink" x="0px" y="0px"
	 viewBox="0 0 500 500" style="enable-background:new 0 0 500 500;" xml:space="preserve">
<g>
	<g>
		<path d="M481.8,313.9l-51.3-40.2c1-7.8,1.7-15.7,1.7-23.7c0-8-0.7-15.9-1.7-23.7l51.4-40.2c4.6-3.6,6-10.2,2.9-15.6l-48.6-84.2
			c-3-5.2-9.4-7.4-14.8-5.2l-60.5,24.4c-12.5-9.6-26.2-17.7-41.1-23.9l-9.1-64.4C309.6,11.5,304.6,7,298.5,7h-97.2
			c-6.1,0-11.1,4.5-12,10.2l-9.1,64.4c-14.8,6.2-28.6,14.2-41.1,23.9L78.6,81.1c-5.5-2.1-11.8,0-14.8,5.2l-48.6,84.2
			c-3,5.2-1.7,11.8,2.9,15.6l51.3,40.2c-1,7.8-1.7,15.7-1.7,23.7c0,8,0.7,15.9,1.7,23.7l-51.3,40.2c-4.6,3.6-6,10.2-2.9,15.6
			l48.6,84.2c3,5.2,9.4,7.4,14.8,5.2l60.5-24.4c12.5,9.6,26.2,17.7,41.1,23.9l9.1,64.4c1,5.7,6,10.2,12,10.2h97.2
			c6.1,0,11.1-4.5,12-10.2l9.1-64.4c14.8-6.2,28.6-14.2,41.1-23.9l60.5,24.4c5.5,2.1,11.8,0,14.8-5.2l48.6-84.2
			C487.7,324.2,486.4,317.7,481.8,313.9z M249.9,335.1c-47,0-85.1-38-85.1-85.1s38-85,85.1-85S335,203,335,250
			S297,335.1,249.9,335.1z"/>
	</g>
</g>
</svg>
