<?xml version="1.0" encoding="utf-8"?>
<!-- Generator: Adobe Illustrator 25.0.0, SVG Export Plug-In . SVG Version: 6.00 Build 0)  -->
<svg version="1.1" id="Layer_1" xmlns="http://www.w3.org/2000/svg" xmlns:xlink="http://www.w3.org/1999/xlink" x="0px" y="0px"
	 viewBox="0 0 3547.51 976.47" style="enable-background:new 0 0 3547.51 976.47;" xml:space="preserve">
<style type="text/css">
	.st0{fill:#01003F;}
</style>
<g>
	<g>
		<path class="st0" d="M1394.17,802.75c-102.29,0-180.21-28.21-233.77-84.65c-53.56-56.42-80.34-136.56-80.34-240.43
			c0-51.62,8.17-97.7,24.51-138.23c16.34-40.52,38.72-74.74,67.18-102.66c28.44-27.92,62.33-49.08,101.68-63.48
			c39.33-14.41,82-21.61,128-21.61c26.62,0,50.84,1.96,72.63,5.85c21.79,3.91,40.85,8.41,57.19,13.51
			c16.34,5.11,29.96,10.36,40.85,15.76c10.89,5.4,18.75,9.61,23.6,12.61l-40.85,113.46c-19.38-10.2-41.92-18.91-67.63-26.12
			c-25.73-7.2-54.92-10.8-87.61-10.8c-21.79,0-43.12,3.6-64,10.8c-20.88,7.21-39.35,18.77-55.38,34.67
			c-16.04,15.91-28.91,36.47-38.58,61.68c-9.69,25.22-14.53,55.83-14.53,91.85c0,28.82,3.18,55.69,9.53,80.59
			c6.36,24.92,16.64,46.38,30.87,64.39c14.21,18.01,32.82,32.28,55.83,42.77c22.99,10.51,50.84,15.76,83.52,15.76
			c20.57,0,39.04-1.2,55.38-3.61c16.34-2.39,30.87-5.25,43.58-8.55c12.71-3.29,23.9-7.05,33.59-11.26
			c9.67-4.2,18.45-8.11,26.33-11.71l39.04,112.56c-19.97,12.02-48.11,22.82-84.43,32.42
			C1484.05,797.94,1441.97,802.75,1394.17,802.75z"/>
		<path class="st0" d="M1686.49,790.14V112.97l135.27-21.61v226.93c9.08-3,20.72-5.86,34.95-8.56c14.21-2.7,27.99-4.05,41.31-4.05
			c38.72,0,70.95,5.26,96.68,15.76c25.72,10.51,46.3,25.37,61.73,44.57c15.43,19.22,26.33,42.03,32.68,68.44
			c6.35,26.42,9.53,55.83,9.53,88.25v267.45h-135.27V538.9c0-43.22-5.6-73.84-16.8-91.85c-11.21-18.01-31.93-27.02-62.19-27.02
			c-12.11,0-23.46,1.05-34.04,3.15c-10.6,2.11-20.13,4.36-28.6,6.75v360.2H1686.49z"/>
		<path class="st0" d="M2369.18,179.61c0,24.62-8.03,43.98-24.06,58.08c-16.04,14.11-34.95,21.16-56.74,21.16
			s-40.71-7.05-56.74-21.16c-16.04-14.1-24.05-33.46-24.05-58.08c0-24.61,8.01-43.97,24.05-58.08
			c16.03-14.1,34.96-21.16,56.74-21.16s40.69,7.06,56.74,21.16C2361.15,135.64,2369.18,155,2369.18,179.61z M2356.46,790.14H2221.2
			V316.48h135.27V790.14z"/>
		<path class="st0" d="M2927.48,553.31c0,36.62-4.54,69.94-13.62,99.96c-9.08,30.02-22.4,55.83-39.95,77.44
			c-17.56,21.61-39.35,38.42-65.36,50.43c-26.03,12-55.99,18.01-89.88,18.01c-18.77,0-36.31-1.8-52.65-5.4
			c-16.34-3.6-32.09-8.69-47.21-15.31v178.3h-135.27V332.69c12.1-3.61,26.01-7.05,41.76-10.36c15.73-3.29,32.23-6.15,49.48-8.55
			c17.25-2.39,34.79-4.35,52.65-5.86c17.84-1.49,34.95-2.25,51.29-2.25c39.34,0,74.45,5.86,105.31,17.56
			c30.87,11.71,56.89,28.23,78.07,49.53c21.18,21.32,37.36,47.27,48.57,77.89C2921.88,481.27,2927.48,515.49,2927.48,553.31z
			 M2789.49,556.91c0-41.42-9.39-74.59-28.14-99.5c-18.77-24.9-46.61-37.37-83.52-37.37c-12.12,0-23.31,0.45-33.59,1.35
			c-10.3,0.9-18.77,1.96-25.42,3.15v242.23c8.47,5.4,19.52,9.91,33.13,13.51c13.62,3.6,27.38,5.4,41.31,5.4
			C2757.4,685.69,2789.49,642.77,2789.49,556.91z"/>
		<path class="st0" d="M3475.81,553.31c0,36.62-4.54,69.94-13.62,99.96c-9.08,30.02-22.4,55.83-39.95,77.44
			c-17.56,21.61-39.35,38.42-65.36,50.43c-26.03,12-55.99,18.01-89.88,18.01c-18.77,0-36.31-1.8-52.65-5.4
			c-16.34-3.6-32.09-8.69-47.21-15.31v178.3h-135.27V332.69c12.1-3.61,26.01-7.05,41.76-10.36c15.73-3.29,32.23-6.15,49.48-8.55
			c17.25-2.39,34.79-4.35,52.65-5.86c17.84-1.49,34.95-2.25,51.29-2.25c39.34,0,74.45,5.86,105.31,17.56
			c30.87,11.71,56.89,28.23,78.07,49.53c21.18,21.32,37.36,47.27,48.57,77.89C3470.2,481.27,3475.81,515.49,3475.81,553.31z
			 M3337.82,556.91c0-41.42-9.39-74.59-28.14-99.5c-18.77-24.9-46.61-37.37-83.52-37.37c-12.12,0-23.31,0.45-33.59,1.35
			c-10.3,0.9-18.77,1.96-25.42,3.15v242.23c8.47,5.4,19.52,9.91,33.13,13.51c13.62,3.6,27.38,5.4,41.31,5.4
			C3305.73,685.69,3337.82,642.77,3337.82,556.91z"/>
	</g>
	<g>
		<g>
			<path class="st0" d="M621.53,643.11c3.06-0.37,12.97-2.63,30.24-6.64c19.07-4.41,42.79-9.91,57.97-12.74
				c4.93-0.94,10.2-2.09,15.78-3.29c17.64-3.87,38.18-4.01,59.23,1.26c0,0,0.09,0.03,0.26,0.06c1.4,0.29,8.25,1.72,18.44,4.73
				c0.06,0.03,0.14,0.03,0.2,0.06c26.81,7.9,76.33,26.41,109.95,62.21c2.55,2.72,5.01,5.53,7.36,8.45c0.2,0.23,0.37,0.43,0.54,0.66
				c10.02,12.57,17.87,22.45,24.03,30.19c8.19,10.28,13.37,16.81,16.7,20.96c1.6,1.58,3.32,3.21,5.13,4.87
				c0.43,0.4,0.86,0.8,1.29,1.2V85.41c0-36.26-29.38-65.67-65.67-65.67H137.4c-36.29,0-65.7,29.41-65.7,65.67v765.57
				c0,36.29,29.41,65.7,65.7,65.7h765.57c36.29,0,65.67-29.41,65.67-65.7v-36.11c-4.73-0.14-9.79-0.54-15.18-1.23
				c-102.22-13.06-123.67-42.24-209.39-42.19c-8.33,0.03-17.13,0.43-26.09,0.43c-66.42,0-229.66-8.48-311.12-86.98
				c-14.55-14.03-42.33-44.79-51.27-54.73c4.35-4.18,13.32-11.48,22.85-11.48c2.43,0,4.84,0.49,7.07,1.49
				c17.87,7.73,33.57,19.68,47.43,30.22c11.43,8.68,21.28,16.18,30.82,20.39c15.35,6.82,51.35,22.8,88.3,29.16
				c10.71,1.8,20.85,2.72,30.07,2.72c1.69,0,3.38,0,5.04-0.09c9.91-0.34,22-1.17,34.94-2.35c14.92-1.35,30.47-3.18,44.91-5.27
				c59.46-8.51,65.13-16.32,66.99-18.87c2.69-3.72,1.86-6.67,1.15-8.11c-2.23-4.38-8.36-4.98-14.06-4.98
				c-13.09,0-33.14,3.98-34,4.15l-0.49,0.14c-0.17,0.06-16.98,5.33-34.74,5.33c-9.16,0-16.95-1.37-23.14-4.15
				c-1.55-0.66-3.04-1.46-4.47-2.38c-5.38-3.49-11.57-8.91-10.17-15.04C615.12,646.58,619.76,643.34,621.53,643.11z M528.14,685.01
				c-0.49-0.14-1-0.29-1.52-0.43c-4.01-1.15-7.96-2.35-11.77-3.61c-0.29-0.11-0.57-0.2-0.86-0.29c-1.63-0.54-3.29-1.09-4.93-1.66
				c-0.32-0.11-0.63-0.23-0.97-0.34c-1.72-0.6-3.44-1.2-5.1-1.8c-0.09-0.03-0.2-0.09-0.29-0.11c-3.72-1.35-7.3-2.69-10.65-4.04
				c-0.11-0.03-0.23-0.09-0.32-0.11c-1.58-0.63-3.09-1.23-4.58-1.83c-0.11-0.06-0.26-0.11-0.4-0.14c-4.67-1.92-8.88-3.72-12.52-5.3
				c-0.14-0.09-0.32-0.14-0.49-0.23c-1.03-0.46-2.06-0.89-3.01-1.32c-0.11-0.06-0.23-0.11-0.37-0.17c-1-0.43-1.98-0.86-2.86-1.26
				c-8.53-3.78-18.01-10.97-28.98-19.33c-12.54-9.54-26.61-20.19-42.67-28.21c4.55-4.84,11.34-7.3,20.33-7.3
				c18.96,2.55,39.24,19.25,57.14,34c3.29,2.72,6.47,5.33,9.57,7.79c0.34,0.26,25.98,20.62,47.66,36.37
				C529.74,685.44,528.94,685.24,528.14,685.01z M596.81,692.86c-0.95,0.09-1.89,0.11-2.81,0.17c-2.49,0.14-4.9,0.26-7.16,0.34
				c-2.52,0.09-5.1,0.09-7.7,0.03c-0.86,0-1.72-0.09-2.58-0.11c-1.8-0.06-3.61-0.14-5.44-0.26c-1.06-0.09-2.15-0.23-3.21-0.34
				c-1.72-0.14-3.41-0.29-5.16-0.52c-1.17-0.14-2.38-0.34-3.52-0.52c-1.58-0.2-3.12-0.43-4.73-0.69
				c-17.27-10.85-53.27-38.86-65.9-48.89c-3.01-2.43-6.19-5.01-9.42-7.7c-14.32-11.77-30.04-24.69-46.37-31.56
				c9.59-6.21,20.05-6.9,33.28-2.55c12.57,4.12,20.22,10.28,54.36,38.72c20.59,17.18,57.05,42.79,76.44,52.1
				c1.06,0.52,2.21,1.03,3.44,1.58C599.16,692.75,597.96,692.8,596.81,692.86z M623.34,681.58c6.3,2.55,13.03,4.93,20.08,7.16
				c-0.14,0.03-0.29,0.03-0.4,0.06c-6.62,0.77-13.26,1.46-19.82,2.06c-0.32,0.03-0.63,0.06-0.95,0.09
				c-9.16-3.01-16.38-5.76-21.37-8.16c-14.46-6.96-38.92-23.4-58.6-38.29c-0.32-0.37-16.7-22.37-37.83-38.78
				c2.49-1.29,5.79-2.29,9.97-2.29c4.7,0,9.94,1.23,15.58,3.69c10.6,4.67,18.36,13.83,28.18,25.43
				c5.58,6.59,11.89,14.06,19.68,21.68C588.17,664.39,603.46,673.61,623.34,681.58z M504.74,458.56c0-11.74,1.46-23.17,4.27-34.05
				c0.54-2.09,1.15-4.15,1.78-6.19c17.24-55.48,68.99-95.74,130.14-95.74c75.24,0,136.24,61,136.24,136.27
				c0,11.74-1.49,23.14-4.3,34.02c-0.54,2.09-1.12,4.18-1.75,6.21c-0.26,0.89-0.54,1.75-0.83,2.61c-0.29,0.83-0.57,1.66-0.89,2.52
				c-18.76,52.78-69.17,90.62-128.42,90.62C565.74,594.83,504.74,533.82,504.74,458.56z"/>
			<path class="st0" d="M959.78,745.92"/>
			<g>
				<path class="st0" d="M651.76,487.63c0.65-1.52,1-3.18,1.02-4.99c0.02-2.05-0.23-3.86-0.79-5.43c-0.57-1.57-1.49-3-2.78-4.29
					c-1.3-1.28-2.97-2.48-5.03-3.59c-2.06-1.09-4.58-2.19-7.56-3.26c-5.12-1.88-9.77-3.83-13.95-5.87
					c-4.17-2.04-7.73-4.36-10.69-6.99c-2.95-2.63-5.23-5.69-6.83-9.18c-1.61-3.49-2.37-7.62-2.31-12.4
					c0.06-4.14,0.86-7.91,2.37-11.32c1.52-3.39,3.66-6.33,6.44-8.83c2.76-2.49,6.06-4.51,9.89-6.03c3.83-1.54,8.11-2.48,12.84-2.85
					l0.23-15.65l12.61,0.18l-0.23,15.87c4.51,0.65,8.58,1.9,12.23,3.76c3.65,1.86,6.75,4.25,9.28,7.16c2.53,2.91,4.46,6.34,5.8,10.3
					c1.33,3.94,1.97,8.36,1.89,13.23l-22.76-0.33c0.09-5.85-1.15-10.25-3.71-13.2c-2.56-2.94-6.02-4.44-10.37-4.5
					c-2.37-0.04-4.41,0.26-6.12,0.9c-1.72,0.63-3.13,1.51-4.26,2.64c-1.12,1.13-1.95,2.47-2.49,4.03c-0.55,1.55-0.84,3.23-0.86,5.04
					c-0.02,1.81,0.21,3.44,0.71,4.91c0.5,1.46,1.39,2.84,2.67,4.09c1.27,1.27,2.95,2.46,5.06,3.59c2.11,1.13,4.73,2.31,7.86,3.53
					c5.06,1.97,9.67,3.99,13.82,6.05c4.14,2.06,7.69,4.42,10.65,7.08c2.95,2.65,5.23,5.73,6.83,9.2c1.61,3.49,2.37,7.61,2.3,12.34
					c-0.06,4.29-0.86,8.13-2.41,11.53s-3.7,6.32-6.46,8.76c-2.78,2.45-6.09,4.4-9.98,5.85c-3.88,1.46-8.18,2.37-12.93,2.74
					l-0.21,14.56l-12.52-0.17l0.21-14.49c-4.35-0.5-8.55-1.52-12.59-3.05c-4.05-1.52-7.63-3.67-10.74-6.49
					c-3.11-2.79-5.58-6.3-7.41-10.53s-2.7-9.26-2.62-15.11l22.76,0.33c-0.05,3.46,0.39,6.36,1.34,8.69c0.93,2.33,2.2,4.2,3.81,5.62
					c1.61,1.41,3.45,2.42,5.52,3.01c2.06,0.59,4.18,0.91,6.33,0.93c2.47,0.04,4.63-0.25,6.51-0.86c1.87-0.6,3.44-1.46,4.72-2.56
					C650.14,490.48,651.11,489.17,651.76,487.63z"/>
			</g>
		</g>
		<g>
			<path class="st0" d="M641.69,336.98c-53.33,0-98.69,34.77-114.62,82.86c-0.26,0.74-0.52,1.52-0.74,2.29
				c-0.86,2.75-1.6,5.53-2.26,8.36c-2.09,8.85-3.18,18.04-3.18,27.49c0,66.59,54.19,120.75,120.75,120.75
				c53.36,0,98.72-34.77,114.65-82.86c0.26-0.74,0.49-1.52,0.74-2.29c0.83-2.75,1.6-5.53,2.26-8.36c0.26-1.09,0.49-2.18,0.69-3.29
				c0,0,0-0.03,0.03-0.03c1.6-7.82,2.43-15.9,2.43-24.17C762.44,391.14,708.28,336.98,641.69,336.98z M641.64,558.11
				c-55.3,0-100.13-44.82-100.13-100.13s44.82-100.13,100.13-100.13c55.3,0,100.13,44.82,100.13,100.13S696.94,558.11,641.64,558.11
				z"/>
		</g>
	</g>
</g>
</svg>
