<?xml version="1.0" encoding="utf-8"?>
<!-- Generator: Adobe Illustrator 25.0.0, SVG Export Plug-In . SVG Version: 6.00 Build 0)  -->
<svg version="1.1" id="Layer_1" xmlns="http://www.w3.org/2000/svg" xmlns:xlink="http://www.w3.org/1999/xlink" x="0px" y="0px"
	 viewBox="0 0 3547.5 976.5" style="enable-background:new 0 0 3547.5 976.5;" xml:space="preserve">
<style type="text/css">
	.st0{fill:#FFFFFF;}
</style>
<g>
	<g>
		<path class="st0" d="M1394.2,802.8c-102.3,0-180.2-28.2-233.8-84.7c-53.6-56.4-80.3-136.6-80.3-240.4c0-51.6,8.2-97.7,24.5-138.2
			c16.3-40.5,38.7-74.7,67.2-102.7c28.4-27.9,62.3-49.1,101.7-63.5c39.3-14.4,82-21.6,128-21.6c26.6,0,50.8,2,72.6,5.9
			c21.8,3.9,40.8,8.4,57.2,13.5c16.3,5.1,30,10.4,40.8,15.8s18.8,9.6,23.6,12.6l-40.8,113.5c-19.4-10.2-41.9-18.9-67.6-26.1
			c-25.7-7.2-54.9-10.8-87.6-10.8c-21.8,0-43.1,3.6-64,10.8c-20.9,7.2-39.3,18.8-55.4,34.7c-16,15.9-28.9,36.5-38.6,61.7
			c-9.7,25.2-14.5,55.8-14.5,91.9c0,28.8,3.2,55.7,9.5,80.6c6.4,24.9,16.6,46.4,30.9,64.4c14.2,18,32.8,32.3,55.8,42.8
			c23,10.5,50.8,15.8,83.5,15.8c20.6,0,39-1.2,55.4-3.6c16.3-2.4,30.9-5.2,43.6-8.5c12.7-3.3,23.9-7,33.6-11.3
			c9.7-4.2,18.4-8.1,26.3-11.7l39,112.6c-20,12-48.1,22.8-84.4,32.4C1484.1,797.9,1442,802.8,1394.2,802.8z"/>
		<path class="st0" d="M1686.5,790.1V113l135.3-21.6v226.9c9.1-3,20.7-5.9,34.9-8.6c14.2-2.7,28-4,41.3-4c38.7,0,70.9,5.3,96.7,15.8
			c25.7,10.5,46.3,25.4,61.7,44.6c15.4,19.2,26.3,42,32.7,68.4c6.4,26.4,9.5,55.8,9.5,88.2v267.5h-135.3V538.9
			c0-43.2-5.6-73.8-16.8-91.9c-11.2-18-31.9-27-62.2-27c-12.1,0-23.5,1-34,3.1c-10.6,2.1-20.1,4.4-28.6,6.8v360.2L1686.5,790.1
			L1686.5,790.1z"/>
		<path class="st0" d="M2369.2,179.6c0,24.6-8,44-24.1,58.1c-16,14.1-34.9,21.2-56.7,21.2s-40.7-7.1-56.7-21.2
			c-16-14.1-24.1-33.5-24.1-58.1c0-24.6,8-44,24.1-58.1c16-14.1,35-21.2,56.7-21.2s40.7,7.1,56.7,21.2
			C2361.1,135.6,2369.2,155,2369.2,179.6z M2356.5,790.1h-135.3V316.5h135.3L2356.5,790.1L2356.5,790.1z"/>
		<path class="st0" d="M2927.5,553.3c0,36.6-4.5,69.9-13.6,100s-22.4,55.8-39.9,77.4c-17.6,21.6-39.4,38.4-65.4,50.4
			c-26,12-56,18-89.9,18c-18.8,0-36.3-1.8-52.6-5.4c-16.3-3.6-32.1-8.7-47.2-15.3v178.3h-135.3v-624c12.1-3.6,26-7,41.8-10.4
			c15.7-3.3,32.2-6.1,49.5-8.5c17.2-2.4,34.8-4.4,52.6-5.9c17.8-1.5,34.9-2.2,51.3-2.2c39.3,0,74.4,5.9,105.3,17.6
			c30.9,11.7,56.9,28.2,78.1,49.5c21.2,21.3,37.4,47.3,48.6,77.9C2921.9,481.3,2927.5,515.5,2927.5,553.3z M2789.5,556.9
			c0-41.4-9.4-74.6-28.1-99.5c-18.8-24.9-46.6-37.4-83.5-37.4c-12.1,0-23.3,0.5-33.6,1.4c-10.3,0.9-18.8,2-25.4,3.1v242.2
			c8.5,5.4,19.5,9.9,33.1,13.5c13.6,3.6,27.4,5.4,41.3,5.4C2757.4,685.7,2789.5,642.8,2789.5,556.9z"/>
		<path class="st0" d="M3475.8,553.3c0,36.6-4.5,69.9-13.6,100s-22.4,55.8-39.9,77.4c-17.6,21.6-39.4,38.4-65.4,50.4
			c-26,12-56,18-89.9,18c-18.8,0-36.3-1.8-52.6-5.4c-16.3-3.6-32.1-8.7-47.2-15.3v178.3h-135.3v-624c12.1-3.6,26-7,41.8-10.4
			c15.7-3.3,32.2-6.1,49.5-8.5c17.2-2.4,34.8-4.4,52.6-5.9c17.8-1.5,34.9-2.2,51.3-2.2c39.3,0,74.4,5.9,105.3,17.6
			c30.9,11.7,56.9,28.2,78.1,49.5c21.2,21.3,37.4,47.3,48.6,77.9C3470.2,481.3,3475.8,515.5,3475.8,553.3z M3337.8,556.9
			c0-41.4-9.4-74.6-28.1-99.5c-18.8-24.9-46.6-37.4-83.5-37.4c-12.1,0-23.3,0.5-33.6,1.4c-10.3,0.9-18.8,2-25.4,3.1v242.2
			c8.5,5.4,19.5,9.9,33.1,13.5c13.6,3.6,27.4,5.4,41.3,5.4C3305.7,685.7,3337.8,642.8,3337.8,556.9z"/>
	</g>
	<g>
		<g>
			<path class="st0" d="M621.5,643.1c3.1-0.4,13-2.6,30.2-6.6c19.1-4.4,42.8-9.9,58-12.7c4.9-0.9,10.2-2.1,15.8-3.3
				c17.6-3.9,38.2-4,59.2,1.3c0,0,0.1,0,0.3,0.1c1.4,0.3,8.2,1.7,18.4,4.7c0.1,0,0.1,0,0.2,0.1c26.8,7.9,76.3,26.4,110,62.2
				c2.5,2.7,5,5.5,7.4,8.5c0.2,0.2,0.4,0.4,0.5,0.7c10,12.6,17.9,22.5,24,30.2c8.2,10.3,13.4,16.8,16.7,21c1.6,1.6,3.3,3.2,5.1,4.9
				c0.4,0.4,0.9,0.8,1.3,1.2V85.4c0-36.3-29.4-65.7-65.7-65.7H137.4c-36.3,0-65.7,29.4-65.7,65.7V851c0,36.3,29.4,65.7,65.7,65.7
				H903c36.3,0,65.7-29.4,65.7-65.7v-36.1c-4.7-0.1-9.8-0.5-15.2-1.2c-102.2-13.1-123.7-42.2-209.4-42.2c-8.3,0-17.1,0.4-26.1,0.4
				c-66.4,0-229.7-8.5-311.1-87c-14.5-14-42.3-44.8-51.3-54.7c4.4-4.2,13.3-11.5,22.9-11.5c2.4,0,4.8,0.5,7.1,1.5
				c17.9,7.7,33.6,19.7,47.4,30.2c11.4,8.7,21.3,16.2,30.8,20.4c15.4,6.8,51.3,22.8,88.3,29.2c10.7,1.8,20.8,2.7,30.1,2.7
				c1.7,0,3.4,0,5-0.1c9.9-0.3,22-1.2,34.9-2.3c14.9-1.3,30.5-3.2,44.9-5.3c59.5-8.5,65.1-16.3,67-18.9c2.7-3.7,1.9-6.7,1.2-8.1
				c-2.2-4.4-8.4-5-14.1-5c-13.1,0-33.1,4-34,4.2l-0.5,0.1c-0.2,0.1-17,5.3-34.7,5.3c-9.2,0-17-1.4-23.1-4.2c-1.5-0.7-3-1.5-4.5-2.4
				c-5.4-3.5-11.6-8.9-10.2-15C615.1,646.6,619.8,643.3,621.5,643.1z M528.1,685c-0.5-0.1-1-0.3-1.5-0.4c-4-1.2-8-2.3-11.8-3.6
				c-0.3-0.1-0.6-0.2-0.9-0.3c-1.6-0.5-3.3-1.1-4.9-1.7c-0.3-0.1-0.6-0.2-1-0.3c-1.7-0.6-3.4-1.2-5.1-1.8c-0.1,0-0.2-0.1-0.3-0.1
				c-3.7-1.3-7.3-2.7-10.6-4c-0.1,0-0.2-0.1-0.3-0.1c-1.6-0.6-3.1-1.2-4.6-1.8c-0.1-0.1-0.3-0.1-0.4-0.1c-4.7-1.9-8.9-3.7-12.5-5.3
				c-0.1-0.1-0.3-0.1-0.5-0.2c-1-0.5-2.1-0.9-3-1.3c-0.1-0.1-0.2-0.1-0.4-0.2c-1-0.4-2-0.9-2.9-1.3c-8.5-3.8-18-11-29-19.3
				c-12.5-9.5-26.6-20.2-42.7-28.2c4.5-4.8,11.3-7.3,20.3-7.3c19,2.5,39.2,19.2,57.1,34c3.3,2.7,6.5,5.3,9.6,7.8
				c0.3,0.3,26,20.6,47.7,36.4C529.7,685.4,528.9,685.2,528.1,685z M596.8,692.9c-1,0.1-1.9,0.1-2.8,0.2c-2.5,0.1-4.9,0.3-7.2,0.3
				c-2.5,0.1-5.1,0.1-7.7,0c-0.9,0-1.7-0.1-2.6-0.1c-1.8-0.1-3.6-0.1-5.4-0.3c-1.1-0.1-2.2-0.2-3.2-0.3c-1.7-0.1-3.4-0.3-5.2-0.5
				c-1.2-0.1-2.4-0.3-3.5-0.5c-1.6-0.2-3.1-0.4-4.7-0.7c-17.3-10.8-53.3-38.9-65.9-48.9c-3-2.4-6.2-5-9.4-7.7
				c-14.3-11.8-30-24.7-46.4-31.6c9.6-6.2,20-6.9,33.3-2.5c12.6,4.1,20.2,10.3,54.4,38.7c20.6,17.2,57,42.8,76.4,52.1
				c1.1,0.5,2.2,1,3.4,1.6C599.2,692.8,598,692.8,596.8,692.9z M623.3,681.6c6.3,2.5,13,4.9,20.1,7.2c-0.1,0-0.3,0-0.4,0.1
				c-6.6,0.8-13.3,1.5-19.8,2.1c-0.3,0-0.6,0.1-1,0.1c-9.2-3-16.4-5.8-21.4-8.2c-14.5-7-38.9-23.4-58.6-38.3
				c-0.3-0.4-16.7-22.4-37.8-38.8c2.5-1.3,5.8-2.3,10-2.3c4.7,0,9.9,1.2,15.6,3.7c10.6,4.7,18.4,13.8,28.2,25.4
				c5.6,6.6,11.9,14.1,19.7,21.7C588.2,664.4,603.5,673.6,623.3,681.6z M504.7,458.6c0-11.7,1.5-23.2,4.3-34
				c0.5-2.1,1.1-4.1,1.8-6.2c17.2-55.5,69-95.7,130.1-95.7c75.2,0,136.2,61,136.2,136.3c0,11.7-1.5,23.1-4.3,34
				c-0.5,2.1-1.1,4.2-1.8,6.2c-0.3,0.9-0.5,1.8-0.8,2.6c-0.3,0.8-0.6,1.7-0.9,2.5c-18.8,52.8-69.2,90.6-128.4,90.6
				C565.7,594.8,504.7,533.8,504.7,458.6z"/>
			<path class="st0" d="M959.8,745.9"/>
			<g>
				<path class="st0" d="M651.8,487.6c0.7-1.5,1-3.2,1-5c0-2-0.2-3.9-0.8-5.4c-0.6-1.6-1.5-3-2.8-4.3c-1.3-1.3-3-2.5-5-3.6
					c-2.1-1.1-4.6-2.2-7.6-3.3c-5.1-1.9-9.8-3.8-14-5.9c-4.2-2-7.7-4.4-10.7-7c-3-2.6-5.2-5.7-6.8-9.2c-1.6-3.5-2.4-7.6-2.3-12.4
					c0.1-4.1,0.9-7.9,2.4-11.3c1.5-3.4,3.7-6.3,6.4-8.8c2.8-2.5,6.1-4.5,9.9-6c3.8-1.5,8.1-2.5,12.8-2.9l0.2-15.6l12.6,0.2L647,403
					c4.5,0.6,8.6,1.9,12.2,3.8c3.7,1.9,6.8,4.2,9.3,7.2s4.5,6.3,5.8,10.3c1.3,3.9,2,8.4,1.9,13.2l-22.8-0.3
					c0.1-5.9-1.2-10.2-3.7-13.2c-2.6-2.9-6-4.4-10.4-4.5c-2.4,0-4.4,0.3-6.1,0.9c-1.7,0.6-3.1,1.5-4.3,2.6c-1.1,1.1-2,2.5-2.5,4
					c-0.5,1.5-0.8,3.2-0.9,5c0,1.8,0.2,3.4,0.7,4.9c0.5,1.5,1.4,2.8,2.7,4.1c1.3,1.3,3,2.5,5.1,3.6s4.7,2.3,7.9,3.5
					c5.1,2,9.7,4,13.8,6c4.1,2.1,7.7,4.4,10.7,7.1c3,2.6,5.2,5.7,6.8,9.2c1.6,3.5,2.4,7.6,2.3,12.3c-0.1,4.3-0.9,8.1-2.4,11.5
					s-3.7,6.3-6.5,8.8c-2.8,2.5-6.1,4.4-10,5.9c-3.9,1.5-8.2,2.4-12.9,2.7l-0.2,14.6l-12.5-0.2l0.2-14.5c-4.3-0.5-8.5-1.5-12.6-3
					c-4-1.5-7.6-3.7-10.7-6.5c-3.1-2.8-5.6-6.3-7.4-10.5s-2.7-9.3-2.6-15.1l22.8,0.3c0,3.5,0.4,6.4,1.3,8.7c0.9,2.3,2.2,4.2,3.8,5.6
					c1.6,1.4,3.5,2.4,5.5,3c2.1,0.6,4.2,0.9,6.3,0.9c2.5,0,4.6-0.2,6.5-0.9c1.9-0.6,3.4-1.5,4.7-2.6
					C650.1,490.5,651.1,489.2,651.8,487.6z"/>
			</g>
		</g>
		<g>
			<path class="st0" d="M641.7,337c-53.3,0-98.7,34.8-114.6,82.9c-0.3,0.7-0.5,1.5-0.7,2.3c-0.9,2.8-1.6,5.5-2.3,8.4
				c-2.1,8.9-3.2,18-3.2,27.5c0,66.6,54.2,120.7,120.8,120.7c53.4,0,98.7-34.8,114.7-82.9c0.3-0.7,0.5-1.5,0.7-2.3
				c0.8-2.8,1.6-5.5,2.3-8.4c0.3-1.1,0.5-2.2,0.7-3.3c0,0,0,0,0,0c1.6-7.8,2.4-15.9,2.4-24.2C762.4,391.1,708.3,337,641.7,337z
				 M641.6,558.1c-55.3,0-100.1-44.8-100.1-100.1s44.8-100.1,100.1-100.1c55.3,0,100.1,44.8,100.1,100.1S696.9,558.1,641.6,558.1z"
				/>
		</g>
	</g>
</g>
</svg>
