<?xml version="1.0" encoding="utf-8"?>
<!-- Generator: Adobe Illustrator 25.0.0, SVG Export Plug-In . SVG Version: 6.00 Build 0)  -->
<svg version="1.1" id="Layer_1" xmlns="http://www.w3.org/2000/svg" xmlns:xlink="http://www.w3.org/1999/xlink" x="0px" y="0px"
	 viewBox="0 0 500 500" style="enable-background:new 0 0 500 500;" xml:space="preserve">
<style type="text/css">
	.st0{fill:#01003F;}
</style>
<g>
	<g>
		<path class="st0" d="M250,7C115.8,7,7,115.8,7,250s108.8,243,243,243c22.4,0,40.5-18.1,40.5-40.5c0-10.5-3.9-20-10.5-27.1
			c-6.3-7.2-10.1-16.5-10.1-26.9c0-22.4,18.1-40.5,40.5-40.5H358c74.5,0,135-60.5,135-135C493,103.7,384.2,7,250,7z M101.5,250
			C79.1,250,61,231.9,61,209.5S79.1,169,101.5,169s40.5,18.1,40.5,40.5S123.9,250,101.5,250z M182.5,142
			c-22.4,0-40.5-18.1-40.5-40.5S160.1,61,182.5,61S223,79.1,223,101.5S204.9,142,182.5,142z M317.5,142c-22.4,0-40.5-18.1-40.5-40.5
			S295.1,61,317.5,61S358,79.1,358,101.5S339.9,142,317.5,142z M398.5,250c-22.4,0-40.5-18.1-40.5-40.5s18.1-40.5,40.5-40.5
			s40.5,18.1,40.5,40.5S420.9,250,398.5,250z"/>
	</g>
</g>
</svg>
