<?xml version="1.0" encoding="utf-8"?>
<!-- Generator: Adobe Illustrator 25.0.0, SVG Export Plug-In . SVG Version: 6.00 Build 0)  -->
<svg version="1.1" id="Layer_1" xmlns="http://www.w3.org/2000/svg" xmlns:xlink="http://www.w3.org/1999/xlink" x="0px" y="0px"
	 viewBox="0 0 500 500" style="enable-background:new 0 0 500 500;" xml:space="preserve">
<style type="text/css">
	.st0{fill:#FFFFFF;}
</style>
<g>
	<g>
		<path class="st0" d="M194.2,319.9l-7.5,44.3c-1,6.1,1.5,12.2,6.4,15.8c5,3.6,11.6,4.1,17,1.2l39.8-20.8l39.8,20.8
			c2.4,1.2,4.9,1.8,7.5,1.8c3.3,0,6.7-1,9.5-3.1c5-3.6,7.5-9.7,6.4-15.8l-7.4-44.3l32.1-31.5c4.4-4.3,5.9-10.7,4.1-16.5
			c-1.9-5.8-6.9-10.1-13-11l-44.4-6.6l-20-40.2c-2.7-5.5-8.3-9-14.5-9c-6.1,0-11.7,3.5-14.5,9l-20,40.2l-44.4,6.6
			c-6.1,0.9-11.1,5.2-13,11s-0.3,12.2,4.1,16.5L194.2,319.9z"/>
		<path class="st0" d="M440.9,58.7H390V30.4c0-13-10.5-23.4-23.5-23.4h-3.7c-13,0-23.4,10.5-23.4,23.4v28.2H160V30.4
			c0-13-10.5-23.4-23.4-23.4h-3.7c-13,0-23.4,10.5-23.4,23.4v28.2H59.1c-26.6,0-48.3,21.6-48.3,48.3v337.8
			c0,26.6,21.7,48.3,48.3,48.3H441c26.6,0,48.3-21.7,48.3-48.3V106.9C489.2,80.3,467.5,58.7,440.9,58.7z M434.6,438.4H65.4v-263
			h369.3L434.6,438.4L434.6,438.4z"/>
	</g>
</g>
</svg>
