<?xml version="1.0" encoding="utf-8"?>
<!-- Generator: Adobe Illustrator 25.0.0, SVG Export Plug-In . SVG Version: 6.00 Build 0)  -->
<svg version="1.1" id="Layer_1" xmlns="http://www.w3.org/2000/svg" xmlns:xlink="http://www.w3.org/1999/xlink" x="0px" y="0px"
	 viewBox="0 0 500 500" style="enable-background:new 0 0 500 500;" xml:space="preserve">
<g>
	<path d="M212,22c-11.7,0-21.7,8.7-23.4,20.2L158,282.4c-0.5,3.7-2.3,7-5.2,9.3l-30.3,24.5l53.1,53.9l53.6-53.6
		c4.2-4.2,6.5-9.7,6.5-15.6V45.6C235.7,32.6,225.1,22,212,22L212,22z"/>
	<path d="M172.8,408.1l-92.4-93.9l-69.8,53.8c-6.7,5.1-7.5,14.9-1.7,21.1l78.3,84.3c5.5,6,14.9,6.1,20.7,0.3L172.8,408.1z"/>
	<path d="M377.4,316.2l-30.3-24.5c-2.9-2.3-4.7-5.7-5.2-9.3L311.4,42.2C309.7,30.7,299.6,22,288,22c-13,0-23.6,10.6-23.6,23.6V301
		c0,5.9,2.3,11.5,6.5,15.6l53.6,53.6L377.4,316.2z"/>
	<path d="M419.6,314.2l-92.4,93.9l65,65.7c5.7,5.8,15.1,5.6,20.7-0.3l78.3-84.3c5.7-6.2,4.9-15.9-1.7-21.1L419.6,314.2z"/>
</g>
</svg>
