<?xml version="1.0" encoding="utf-8"?>
<!-- Generator: Adobe Illustrator 25.0.0, SVG Export Plug-In . SVG Version: 6.00 Build 0)  -->
<svg version="1.1" id="Layer_1" xmlns="http://www.w3.org/2000/svg" xmlns:xlink="http://www.w3.org/1999/xlink" x="0px" y="0px"
	 viewBox="0 0 500 500" style="enable-background:new 0 0 500 500;" xml:space="preserve">
<style type="text/css">
	.st0{fill:#FFFFFF;}
</style>
<path class="st0" d="M250,8C116.3,8,8,116.3,8,250s108.3,242,242,242s242-108.3,242-242C491.9,116.4,383.6,8.1,250,8z M258.6,77.8
	l84.1-33.6c9.5,4.3,18.8,9.3,27.6,14.9l0.2,0.1c8.7,5.5,17,11.6,24.9,18.3l0.7,0.6c3.5,3,7,6.1,10.3,9.3c0.4,0.4,0.9,0.8,1.3,1.2
	c3.5,3.4,6.9,6.9,10.2,10.6c0.3,0.3,0.5,0.6,0.8,0.9c2.9,3.2,5.6,6.6,8.3,10c0.6,0.8,1.3,1.6,1.9,2.4c2.9,3.8,5.7,7.6,8.4,11.6
	l-16.8,71.3L338,222.9l-79.5-63.6L258.6,77.8z M71,112.5c0.6-0.8,1.3-1.6,1.9-2.4c2.7-3.4,5.4-6.7,8.2-9.9c0.3-0.3,0.6-0.7,0.9-1
	c3.3-3.6,6.6-7.2,10.1-10.6c0.4-0.4,0.8-0.8,1.2-1.2c3.3-3.2,6.7-6.3,10.2-9.3l0.8-0.7c7.8-6.6,16-12.7,24.7-18.2l0.3-0.2
	c8.8-5.6,18-10.6,27.5-14.9l84.5,33.5v81.5l-79.5,63.6l-82.5-27.5l-16.8-71.3C65.3,120.1,68.1,116.3,71,112.5z M61.2,373.8
	c-2.4-3.6-4.6-7.3-6.8-11.1l-0.5-0.9c-2.2-3.7-4.2-7.5-6.1-11.4l-0.1-0.1c-4-8.1-7.6-16.5-10.6-25v-0.1c-1.4-4-2.7-8.2-4-12.3
	l-0.4-1.5c-1.1-3.9-2.1-7.9-3-11.8c-0.1-0.4-0.2-0.8-0.3-1.1c-2-9-3.4-18.1-4.3-27.3L74.5,212l81.9,27.3l23.8,95.1l-39.1,52
	L61.2,373.8z M303.7,469.4c-4,1-8.2,1.9-12.3,2.6c-0.6,0.1-1.2,0.2-1.7,0.3c-3.5,0.6-7.1,1.2-10.7,1.6c-1,0.1-1.9,0.3-2.8,0.4
	c-3.3,0.4-6.7,0.7-10,0.9c-1.1,0.1-2.1,0.2-3.2,0.2c-4.3,0.3-8.6,0.4-13,0.4c-4,0-8-0.1-11.9-0.3c-0.5,0-0.9-0.1-1.4-0.1
	c-3.5-0.2-7-0.5-10.5-0.8l-0.4-0.1c-7.6-0.8-15.2-2-22.7-3.6l-47.7-74.7l38.5-51.3h112.4l39.1,51.6L303.7,469.4z M470.6,298.4
	c-0.1,0.4-0.2,0.8-0.3,1.1c-0.9,4-1.9,7.9-3,11.8l-0.4,1.5c-1.2,4.2-2.5,8.3-4,12.3v0.1c-3,8.5-6.6,16.9-10.6,25l-0.1,0.1
	c-1.9,3.9-4,7.7-6.1,11.4l-0.5,0.9c-2.2,3.8-4.4,7.4-6.8,11l-79.6,12.5l-39.3-51.9l23.8-95.1l81.9-27.3l49.2,59.1
	C474,280.3,472.6,289.4,470.6,298.4z"/>
</svg>
