<?xml version="1.0" encoding="utf-8"?>
<!-- Generator: Adobe Illustrator 25.0.0, SVG Export Plug-In . SVG Version: 6.00 Build 0)  -->
<svg version="1.1" id="Layer_1" xmlns="http://www.w3.org/2000/svg" xmlns:xlink="http://www.w3.org/1999/xlink" x="0px" y="0px"
	 viewBox="0 0 500 500" style="enable-background:new 0 0 500 500;" xml:space="preserve">
<style type="text/css">
	.st0{fill:#01003F;}
</style>
<g>
	<g>
		<g>
			<g>
				<path class="st0" d="M368.2,122.3h-15.6V54.5c0-16.5-13.4-30-29.9-30h-9.5V8.9h9.5c25.1,0,45.6,20.5,45.6,45.6v67.8H368.2z"/>
			</g>
			<g>
				<path class="st0" d="M147.4,122.3h-15.6V54.5c0-25.1,20.5-45.6,45.6-45.6h9.5v15.6h-9.5c-16.5,0-30,13.4-30,30V122.3z"/>
			</g>
			<g>
				<path class="st0" d="M289.9,28.5h-79.8c-6.5,0-11.7-5.2-11.7-11.7s5.2-11.7,11.7-11.7h79.8c6.5,0,11.7,5.2,11.7,11.7
					C301.6,23.2,296.4,28.5,289.9,28.5z"/>
			</g>
		</g>
		<g>
			<g>
				<path class="st0" d="M148,467.6v11.7c0,8.6,7,15.6,15.6,15.6s15.6-7,15.6-15.6v-11.7H148z"/>
			</g>
			<g>
				<path class="st0" d="M320.8,467.6v11.7c0,8.6,7,15.6,15.6,15.6s15.6-7,15.6-15.6v-11.7H320.8z"/>
			</g>
		</g>
	</g>
	<g>
		<g>
			<path class="st0" d="M203.9,351.4l-101,101c6.4,3.1,13.5,4.8,21,4.8h136.5L203.9,351.4z"/>
		</g>
		<g>
			<polygon class="st0" points="75.1,261.2 75.1,388.1 157.8,305.4 			"/>
		</g>
		<g>
			<path class="st0" d="M376.1,107.3H123.9c-27,0-48.8,21.9-48.8,48.8v56.1l19.7,2.6l14.2-14.2c5-5,13.2-5,18.2,0s5,13.2,0,18.2
				l-0.3,0.3L230.2,233l38.4-38.4c7.4-7.4,15.6-13.9,24.4-19.2s18.2-9.6,27.9-12.5c8.4-2.6,16-0.4,20.9,4.5s7.1,12.5,4.5,20.9l0,0
				c-3,9.7-7.2,19.1-12.5,27.9c-5.3,8.8-11.8,17-19.2,24.4L276.3,279l13.8,103.4l0.3-0.3c5-5,13.2-5,18.2,0s5,13.2,0,18.2
				l-14.2,14.2l5.7,42.8h76c27,0,48.8-21.9,48.8-48.8V156.1C424.9,129.2,403,107.3,376.1,107.3z"/>
		</g>
	</g>
</g>
</svg>
