<?xml version="1.0" encoding="utf-8"?>
<!-- Generator: Adobe Illustrator 25.0.0, SVG Export Plug-In . SVG Version: 6.00 Build 0)  -->
<svg version="1.1" id="Layer_1" xmlns="http://www.w3.org/2000/svg" xmlns:xlink="http://www.w3.org/1999/xlink" x="0px" y="0px"
	 viewBox="0 0 500 500" style="enable-background:new 0 0 500 500;" xml:space="preserve">
<style type="text/css">
	.st0{fill:#FFFFFF;}
</style>
<g>
	<circle class="st0" cx="415.2" cy="108.1" r="28.4"/>
	<circle class="st0" cx="339.5" cy="51.3" r="28.4"/>
	<circle class="st0" cx="263.9" cy="32.4" r="28.4"/>
	<circle class="st0" cx="188.2" cy="70.2" r="28.4"/>
	<path class="st0" d="M386.9,108.1v123c0,5.2-4.2,9.5-9.5,9.5s-9.5-4.2-9.5-9.5V51.3h-56.8v160.8c0,5.2-4.2,9.5-9.5,9.5
		s-9.5-4.2-9.5-9.5V32.4h-56.8v179.8c0,5.2-4.2,9.5-9.5,9.5c-5.2,0-9.5-4.2-9.5-9.5v-142h-56.8v236.5l-38.3-52.4
		C110.1,236.8,87.9,231,71.7,241c-16.2,10.3-20.2,32.6-9,50.1c0,0,61.8,93.5,88.1,133.6s69,71.4,148.8,71.4
		c132.1,0,143.9-102,143.9-132.5c0-30.4,0-255.5,0-255.5S386.9,108.1,386.9,108.1z"/>
</g>
</svg>
