<?xml version="1.0" encoding="utf-8"?>
<!-- Generator: Adobe Illustrator 25.0.0, SVG Export Plug-In . SVG Version: 6.00 Build 0)  -->
<svg version="1.1" id="Layer_1" xmlns="http://www.w3.org/2000/svg" xmlns:xlink="http://www.w3.org/1999/xlink" x="0px" y="0px"
	 viewBox="0 0 500 500" style="enable-background:new 0 0 500 500;" xml:space="preserve">
<style type="text/css">
	.st0{fill:#01003F;}
	.st1{opacity:0.3;fill:#01003F;enable-background:new    ;}
</style>
<g>
	<path class="st0" d="M101.3,179.6c1.4-2.8,4.4-4.5,7.5-4.5c3.2,0.1,6,2,7.3,4.8l27.8,61.3h73.6c2.8,0,5.3,1.4,6.9,3.7l7.1,10.7
		l6.7-10.6c1.5-2.4,4.1-3.8,6.9-3.8h14.2l32.4-91.2c1.2-3.5,4.7-5.7,8.4-5.5c3.7,0.3,6.8,3,7.5,6.6l26.5,132.5l29.2-109.5
		c0.9-3.5,4.1-6,7.8-6.1c3.6-0.1,6.9,2.3,8.1,5.7l27.4,85.9l16.7-26.6c1.5-2.4,4.1-3.9,7-3.9h61.3c7.2-44.3-3.3-86.9-19.9-117.6
		C446.8,65.4,405.3,36.4,363.3,36c-0.3,0-0.7,0-1,0c-30,0-72.8,13.9-112.3,77c-39.9-63.8-83.2-77.3-113.3-77
		c-42,0.4-83.5,29.4-108.3,75.7c-18,33.6-28.9,81-17.5,129.6h58.7L101.3,179.6z"/>
	<path class="st0" d="M411,283.5c-1.7,2.7-4.8,4.2-8,3.8c-3.2-0.4-5.8-2.6-6.8-5.7l-24.2-76L341,322c-1,3.6-4.2,6.1-8,6.1
		c-0.1,0-0.2,0-0.3,0c-3.8-0.1-7.1-2.9-7.8-6.6l-27.6-137.9L273,252.1c-1.2,3.3-4.3,5.5-7.8,5.5h-15.5L238.6,275
		c-1.5,2.3-4.1,3.8-6.9,3.8c-2.7,0.1-5.4-1.4-6.9-3.7l-11.7-17.5h-74.5c-3.2,0-6.2-1.9-7.5-4.8l-23-50.6l-26.2,51
		c-1.4,2.8-4.2,4.5-7.3,4.5h-59c4.5,13.2,10.8,26.3,19.2,39.2c39.5,60.8,108.7,114.9,211.5,165.2l3.6,1.8l3.6-1.8
		c102.8-50.3,172-104.4,211.5-165.2c10.9-16.8,18.3-34.1,22.8-51.2h-53.2L411,283.5z"/>
	<path class="st1" d="M246.4,462.2l3.6,1.8l1.4-0.7c-3.2-1.7-6.3-3.6-9.4-5.5c-30.1-19.1-54.6-45.7-77.6-72.9
		c-25.2-29.9-49.2-61.1-66.8-96.1c-2.7-5.4-5.3-10.8-7.6-16.4c-2.8-6.5-5.3-13.2-7.6-20l-0.5,0.9c-1.4,2.8-4.2,4.5-7.3,4.5h-59
		c4.5,13.2,10.8,26.3,19.2,39.2C74.4,357.9,143.5,411.9,246.4,462.2z"/>
	<path class="st1" d="M10.9,241.3h58.7l6.3-12.2c-4.2-18.9-5.9-38.2-3.8-57.3c5.8-52.6,39.3-102.3,81.5-133.2c0.5-0.4,1-0.7,1.5-1
		c-6.1-1.1-11.8-1.5-17.1-1.6c-42.5,0.5-84.4,29.7-109.4,76.3c-11.7,21.8-20.4,49.5-22,79.6c0,0.1,0,0.2,0,0.3
		c-0.1,1.8-0.2,3.6-0.2,5.4C6.1,211.8,7.5,226.5,10.9,241.3z"/>
</g>
</svg>
