<?xml version="1.0" encoding="utf-8"?>
<!-- Generator: Adobe Illustrator 25.0.0, SVG Export Plug-In . SVG Version: 6.00 Build 0)  -->
<svg version="1.1" id="Layer_1" xmlns="http://www.w3.org/2000/svg" xmlns:xlink="http://www.w3.org/1999/xlink" x="0px" y="0px"
	 viewBox="0 0 500 500" style="enable-background:new 0 0 500 500;" xml:space="preserve">
<style type="text/css">
	.st0{fill:#FFFFFF;}
</style>
<g>
	<path class="st0" d="M310.6,138.9c-11.2,0-20.2-9-20.2-20.2V88.4h-80.8v30.3c0,11.2-9,20.2-20.2,20.2s-20.2-9-20.2-20.2V88.4
		c0-22.3,18.1-40.4,40.4-40.4h80.8c22.3,0,40.4,18.1,40.4,40.4v30.3C330.8,129.9,321.8,138.9,310.6,138.9z"/>
	<path class="st0" d="M264.3,318.3c-3.6,1.4-8.9,2.4-14.3,2.4s-10.7-1-15.6-2.8L7.6,242.3v154.1c0,30.7,24.8,55.5,55.6,55.5h373.7
		c30.7,0,55.5-24.8,55.5-55.5V242.3L264.3,318.3z"/>
	<path class="st0" d="M492.4,164.1v46.3l-237.6,79.2c-1.6,0.6-3.2,0.8-4.8,0.8s-3.2-0.2-4.8-0.8L7.6,210.4v-46.3
		c0-30.7,24.8-55.5,55.6-55.5h373.7C467.6,108.6,492.4,133.4,492.4,164.1z"/>
</g>
</svg>
