<?xml version="1.0" encoding="utf-8"?>
<!-- Generator: Adobe Illustrator 25.0.0, SVG Export Plug-In . SVG Version: 6.00 Build 0)  -->
<svg version="1.1" id="Layer_1" xmlns="http://www.w3.org/2000/svg" xmlns:xlink="http://www.w3.org/1999/xlink" x="0px" y="0px"
	 viewBox="0 0 500 500" style="enable-background:new 0 0 500 500;" xml:space="preserve">
<style type="text/css">
	.st0{fill:#FFFFFF;}
</style>
<path class="st0" d="M419.1,346.9c-16.4,0-32.4,5.6-45.2,15.9l-50.2-50.2c13.7-16.3,21.7-36.7,22.7-58l98.6-3.7
	c4.9,12.5,18.9,18.7,31.4,13.8s18.7-18.9,13.8-31.4c-4.9-12.5-18.9-18.7-31.4-13.8c-6.8,2.7-12.1,8.3-14.3,15.3l-98.6,3.7
	c-3.4-28.1-18.9-53.3-42.4-69l23.3-42.3c21.3,6.7,44-5.3,50.6-26.6s-5.3-44-26.6-50.7c-21.3-6.7-44,5.3-50.6,26.6
	c-4.8,15.5,0.1,32.4,12.5,42.9l-23.3,42.4c-33.9-15.2-73.4-9.5-101.7,14.5L137.4,126c25-31.4,19.9-77.1-11.4-102.1S49.1,4,24,35.3
	S4.1,112.4,35.4,137.4c26.5,21.2,64.1,21.2,90.6,0l50.2,50.2c-14.8,17.4-22.9,39.6-22.9,62.4c0,5.8,0.6,11.6,1.6,17.3l-86.5,23.3
	c-8.9-15.3-28.5-20.5-43.7-11.6c-15.3,8.9-20.5,28.5-11.6,43.8s28.5,20.5,43.7,11.6c9.9-5.8,16-16.4,15.9-27.9c0-0.1,0-0.2,0-0.3
	l86.4-23.3c7.5,20.7,21.8,38.2,40.6,49.7l-24.3,48.6c-25.6-7.9-52.9,6.4-60.8,32.1s6.4,52.9,32,60.9c25.6,7.9,52.9-6.4,60.8-32.1
	c6.1-19.8-1-41.3-17.7-53.6l24.3-48.6c33.2,13.4,71,7.2,98.3-16l50.2,50.2c-25,31.3-19.8,77,11.4,102c31.3,25,76.9,19.9,101.9-11.5
	c25-31.3,19.8-77-11.4-102C451.5,352.4,435.6,346.8,419.1,346.9L419.1,346.9z M121.1,121.1H40.6c0-22.3,18-40.3,40.3-40.3
	c-13.3,0-24.2-10.8-24.2-24.2s10.8-24.2,24.2-24.2S105,43.2,105,56.6S94.2,80.8,80.8,80.8C103.1,80.8,121.1,98.8,121.1,121.1z
	 M250,185.6c17.8,0,32.2,14.4,32.2,32.3s-14.4,32.3-32.2,32.3s-32.2-14.4-32.2-32.3S232.2,185.6,250,185.6z M201.6,306.5
	c0-26.7,21.6-48.4,48.3-48.4s48.3,21.7,48.3,48.4H201.6z M378.8,459.7c0-22.3,18-40.3,40.3-40.3c-13.3,0-24.2-10.8-24.2-24.2
	c0-13.4,10.8-24.2,24.2-24.2c13.3,0,24.2,10.8,24.2,24.2c0,13.4-10.8,24.2-24.2,24.2c22.2,0,40.3,18.1,40.3,40.3H378.8z"/>
</svg>
