<?xml version="1.0" encoding="utf-8"?>
<!-- Generator: Adobe Illustrator 25.0.0, SVG Export Plug-In . SVG Version: 6.00 Build 0)  -->
<svg version="1.1" id="Layer_1" xmlns="http://www.w3.org/2000/svg" xmlns:xlink="http://www.w3.org/1999/xlink" x="0px" y="0px"
	 viewBox="0 0 500 500" style="enable-background:new 0 0 500 500;" xml:space="preserve">
<style type="text/css">
	.st0{fill:#01003F;}
</style>
<path class="st0" d="M250,7C116,7,7,116,7,250s109,243,243,243s243-109,243-243S384,7,250,7z M365.6,375.7
	c-3.9,3.9-9.1,5.9-14.3,5.9s-10.4-2-14.3-5.9L235.7,274.4c-3.8-3.8-5.9-8.9-5.9-14.3V128.5c0-11.2,9.1-20.2,20.2-20.2
	c11.2,0,20.2,9.1,20.2,20.2v123.2l95.3,95.3C373.5,355,373.5,367.8,365.6,375.7z"/>
</svg>
