<?xml version="1.0" encoding="utf-8"?>
<!-- Generator: Adobe Illustrator 25.0.0, SVG Export Plug-In . SVG Version: 6.00 Build 0)  -->
<svg version="1.1" id="Layer_1" xmlns="http://www.w3.org/2000/svg" xmlns:xlink="http://www.w3.org/1999/xlink" x="0px" y="0px"
	 viewBox="0 0 500 500" style="enable-background:new 0 0 500 500;" xml:space="preserve">
<style type="text/css">
	.st0{fill:#01003F;}
</style>
<g>
	<g>
		<path class="st0" d="M483.3,302l-11-120.2c-1.4-15.3-12-31.1-29.1-31.5V84.8c0-2.9-1.4-5.7-3.8-7.5s-5.4-2.3-8.3-1.5
			C372,93.4,277.8,79.4,259,16.7c-1.2-4-4.8-6.7-9-6.7c-4.1,0-7.8,2.7-9,6.7C222.2,79.4,128,93.4,68.7,75.8
			c-2.8-0.8-5.9-0.3-8.3,1.5c-2.4,1.8-3.8,4.6-3.8,7.5v65.5c-16.5,0.4-27.7,16-29.1,31.5L16.7,302c-1.2,13.5-1.4,29,6.3,42.3
			l44.1,76c-7.5,3.2-12.8,10.7-12.8,19.4v29c0,11.6,9.5,21.1,21.1,21.1h7.9c5.2,0,9.4-4.2,9.4-9.4s-4.2-9.4-9.4-9.4h-7.9
			c-1.3,0-2.4-1.1-2.4-2.4v-29c0-1.3,1.1-2.3,2.4-2.3h6.9l0,0h93.3c1.3,0,2.4,1.1,2.4,2.3v29c0,1.3-1.1,2.4-2.4,2.4h-7.9
			c-5.2,0-9.4,4.2-9.4,9.4s4.2,9.4,9.4,9.4h7.9c11.7,0,21.1-9.5,21.1-21.1v-29c0-10.1-7.2-18.6-16.7-20.6c2-11.2,3.2-21.5,3.5-31
			c18.1,11.1,38.6,22.3,62.2,34c1.3,0.6,2.7,1,4.1,1s2.8-0.3,4.1-1c23.6-11.6,44.1-22.8,62.2-34c0.4,9.6,1.6,19.9,3.5,31
			c-9.5,2-16.7,10.5-16.7,20.6v29c0,11.5,9.4,20.9,21,21.1l7.9,0.1h0.2c5.1,0,9.3-4.1,9.4-9.2c0.1-5.2-4-9.4-9.2-9.5l-7.9-0.1
			c-1.4,0-2.5-1.1-2.5-2.4v-29c0-1.3,1.1-2.3,2.4-2.3h93.3l0,0h6.9c1.3,0,2.4,1.1,2.4,2.3v29c0,1.3-1.1,2.3-2.5,2.4l-7.9,0.1
			c-5.2,0.1-9.3,4.4-9.2,9.5c0.1,5.1,4.3,9.2,9.4,9.2h0.2l7.9-0.1c11.6-0.2,21-9.7,21-21.1v-29c0-8.7-5.2-16.1-12.7-19.4l44.1-76
			C484.8,331,484.6,315.5,483.3,302z M161.1,418.6H87.8l-48.6-83.7c-4-7-5.2-16.3-3.8-31.2l11-120.2c0.6-7.2,5.2-14.8,11.4-14.4
			c6.2,0.3,9.5,4.6,9.9,12.7l3.9,88.1c-9.4,12.5-8.4,30.4,3,41.8l36.8,36.6c3.7,3.6,9.6,3.6,13.2,0c3.7-3.7,3.6-9.6,0-13.3
			l-36.8-36.6c-5.1-5.1-5.2-13.4-0.1-18.6s13.5-5.2,18.7-0.1l22.4,22.2C158.3,331,172.3,358.7,161.1,418.6z M320.3,348.2
			c-1.5,5.5-2.6,11.2-3.2,17.2C298,377.8,276,390.2,250,403.2c-26-13-48-25.3-67.1-37.7c-0.7-6-1.8-11.7-3.2-17.2
			c-5.7-21.2-17.3-39.6-37.7-59.7l-22.4-22.2c-8.1-8-19.4-10.8-29.8-8.4l-3.4-77.1c-0.5-10.5-4.4-18.9-10.9-24.3V96.9
			c33.2,7.4,70.8,6.2,103-3.5c32.9-9.9,57.6-27.6,71.5-51c14,23.3,38.7,41.1,71.6,51c32.2,9.7,69.8,10.8,103,3.5v59.7
			c-6.5,5.4-10.4,13.8-10.9,24.3l-3.4,77.1c-10.4-2.4-21.7,0.4-29.8,8.4L358,288.5C337.7,308.6,326,327,320.3,348.2z M460.8,334.9
			l-48.6,83.7h-73.3c-11.2-60,2.8-87.7,32.3-116.8l22.4-22.2c5.2-5.1,13.6-5.1,18.7,0s5.1,13.5-0.1,18.6l-36.8,36.6
			c-3.7,3.7-3.7,9.6,0,13.3c3.7,3.7,9.6,3.7,13.3,0l36.8-36.6c11.4-11.3,12.4-29.2,3-41.8l3.9-88.1c0.4-8.1,3.7-12.3,9.9-12.7h0.4
			c6,0,10.5,7.4,11.1,14.5l10.9,120.2C466,318.6,464.9,328,460.8,334.9z"/>
		<path class="st0" d="M321.6,93.4c-32.9-9.9-57.6-27.6-71.6-51c-14,23.3-38.6,41.1-71.5,51c-32.2,9.7-69.8,10.8-103,3.5v59.7
			c6.5,5.3,10.4,13.8,10.9,24.3l3.4,77.1c10.4-2.4,21.7,0.4,29.8,8.4l22.4,22.2c20.4,20.1,32,38.5,37.7,59.7
			c1.5,5.5,2.6,11.2,3.2,17.2c19.1,12.4,41.1,24.8,67.1,37.7c26-12.9,48-25.3,67.1-37.7c0.7-6,1.8-11.7,3.2-17.2
			c5.7-21.2,17.3-39.6,37.7-59.7l22.4-22.2c8.1-8,19.5-10.8,29.8-8.4l3.4-77.1c0.5-10.5,4.4-18.9,10.9-24.3V96.9
			C391.4,104.2,353.8,103.1,321.6,93.4z M250,320.2c-60,0-108.9-48.8-108.9-108.7S189.9,102.8,250,102.8
			c60,0,108.9,48.8,108.9,108.7S310,320.2,250,320.2z"/>
		<path class="st0" d="M250,121.6c-49.7,0-90.1,40.3-90.1,89.9s40.4,89.9,90.1,89.9s90.2-40.3,90.2-89.9
			C340.1,161.9,299.7,121.6,250,121.6z M281.3,235.3c-1.7,10.3-9.1,20.8-20.6,25v9c0,5.2-4.2,9.4-9.4,9.4c-5.2,0-9.4-4.2-9.4-9.4
			v-7.2c-6.8-0.6-12.1-2.4-19.5-7.2c-4.3-2.8-5.6-8.6-2.7-13c2.8-4.3,8.6-5.6,13-2.7c6.2,4,8.5,4.4,16.7,4.3
			c7.9,0,12.5-5.9,13.4-11.4c0.5-3.3,0.3-9.1-7.4-11.8c-13-4.6-20.6-8.2-26.1-12.5c-6.8-5.3-10-14.6-8.2-24.1
			c1.9-10.3,9.1-18.5,18.8-21.4c0.7-0.2,1.3-0.4,2-0.5v-8.1c0-5.2,4.2-9.4,9.4-9.4c5.2,0,9.4,4.2,9.4,9.4v8.5
			c5.3,1.6,8.9,4,10.5,5.2c4.1,3.1,5,9,1.9,13.1s-9,5-13.1,1.9c-1.5-1.1-6.8-4.5-14.6-2.1c-4.4,1.3-5.5,5.6-5.8,6.9
			c-0.5,2.5,0.1,4.9,1.3,5.8c3.8,2.9,10,5.8,20.8,9.6C275.9,207.7,283.8,220.8,281.3,235.3z"/>
		<path class="st0" d="M125.6,471.1c-5.2,0-9.4,4.2-9.4,9.4s4.2,9.4,9.4,9.4h0.1c5.2,0,9.3-4.2,9.3-9.4S130.7,471.1,125.6,471.1z"/>
		<path class="st0" d="M374.4,471.2L374.4,471.2c-5.2,0-9.4,4.2-9.4,9.4s4.2,9.4,9.4,9.4s9.4-4.2,9.4-9.4S379.6,471.2,374.4,471.2z"
			/>
	</g>
</g>
</svg>
