<?xml version="1.0" encoding="utf-8"?>
<!-- Generator: Adobe Illustrator 25.0.0, SVG Export Plug-In . SVG Version: 6.00 Build 0)  -->
<svg version="1.1" id="Layer_1" xmlns="http://www.w3.org/2000/svg" xmlns:xlink="http://www.w3.org/1999/xlink" x="0px" y="0px"
	 viewBox="0 0 500 500" style="enable-background:new 0 0 500 500;" xml:space="preserve">
<style type="text/css">
	.st0{fill:#FFFFFF;}
</style>
<g>
	<g>
		<path class="st0" d="M205,420c-0.6-1.7-0.8-3.1-0.6-4.2s-0.5-2.1-2.2-2.8s-2.5-1.3-2.5-1.7c0-0.4-1.2-0.7-3.6-0.9
			c-2.4-0.2-3.6-0.3-3.6-0.3h-4.1H185H95c-13.7,0-25.5-4.9-35.3-14.7C49.9,385.5,45,373.7,45,360V140c0-13.7,4.9-25.5,14.7-35.3
			S81.2,90,95,90h100c2.7,0,4.8-0.7,6.4-2c1.6-1.4,2.6-3.4,3.1-6.1s0.8-5.2,0.9-7.3c0.1-2.2,0.1-4.9-0.2-8.3
			c-0.2-3.3-0.3-5.4-0.3-6.3c0-2.7-1-5-3-7s-4.3-3-7-3H95c-24.8,0-46,8.8-63.6,26.4S5,115.2,5,140v220c0,24.8,8.8,46,26.4,63.6
			S70.2,450,95,450h100c2.7,0,4.8-0.7,6.4-2c1.6-1.4,2.6-3.4,3.1-6.1s0.8-5.2,0.9-7.3c0.1-2.2,0.1-4.9-0.2-8.3
			C205.1,422.9,205,420.8,205,420z"/>
		<path class="st0" d="M489.1,235.9l-170-170c-4-4-8.6-5.9-14.1-5.9c-5.4,0-10.1,2-14.1,5.9c-4,4-5.9,8.7-5.9,14.1v90H145
			c-5.4,0-10.1,2-14.1,5.9c-4,4-5.9,8.6-5.9,14.1v120c0,5.4,2,10.1,5.9,14.1c4,4,8.6,5.9,14.1,5.9h140v90c0,5.4,2,10.1,5.9,14.1
			c4,4,8.6,5.9,14.1,5.9c5.4,0,10.1-2,14.1-5.9l170-170c4-4,5.9-8.6,5.9-14.1C495,244.6,493,239.9,489.1,235.9z"/>
	</g>
</g>
</svg>
